<svg id="Layer_1" data-name="Layer 1" xmlns="http://www.w3.org/2000/svg" xmlns:xlink="http://www.w3.org/1999/xlink" viewBox="0 0 146.605 187">
  <defs>
    <style>
      .cls-1, .cls-6 {
        fill: none;
      }

      .cls-2 {
        fill: #004d99;
      }

      .cls-3 {
        clip-path: url(#clip-path);
      }

      .cls-4 {
        fill: #fff;
      }

      .cls-5 {
        fill: #1a1818;
      }

      .cls-6 {
        stroke: #1a1818;
        stroke-miterlimit: 10;
        stroke-width: 0.25px;
      }
    </style>
    <clipPath id="clip-path">
      <rect class="cls-1" width="146.605" height="142.5"/>
    </clipPath>
  </defs>
  <title>475-canada-logo</title>
  <polygon class="cls-2" points="11.322 10.969 11.322 54.459 29.609 10.969 11.322 10.969"/>
  <g class="cls-3">
    <path class="cls-2" d="M54.111,56.755v11.71H47.027V85.438H34.558V68.466H11.322v63H68.449l15.3-63H58.354V56.755H96.407V67.523L81.2,131.463h29.428a18.152,18.152,0,0,1-4.186-2.169,13.168,13.168,0,0,1-6.045-11.62V108.7h12.371c-.1,2.835-.187,4.347-.187,4.439,0,5.571,1.795,8.312,5.476,8.312,3.309,0,4.912-2.549,4.912-7.742,0-1.04-.1-2.363-.187-4.156-.187-1.8-.285-2.835-.285-3.309,0-.279.1-2.17.285-5.477a32.158,32.158,0,0,0-.187-5.474q-.57-4.255-4.538-4.254c-3.775,0-5.572,2.739-5.289,8.124h-11.9V56.755h34.208V10.97H46.834v45.8Z"/>
    <polygon class="cls-2" points="34.371 56.755 34.371 31.003 22.86 56.755 34.371 56.755"/>
    <path class="cls-2" d="M113.434,82.916a12.23,12.23,0,0,1,8.689-3.212c5.6,0,10.862,4,12.955,9.121V68.465H113.434Z"/>
    <path class="cls-4" d="M19.41,97.679c.143.107.257.2.378.285a2.726,2.726,0,0,0,1.281.475A1.875,1.875,0,0,0,22.79,97.7a5.181,5.181,0,0,0,.429-.66q1.046-1.8,2.082-3.6c.026-.045.056-.088.1-.153.159.25.3.478.451.707.462.725.921,1.451,1.386,2.173a2.718,2.718,0,0,0,.713.768,1.7,1.7,0,0,0,1.413.25l1.83-.407.189-.039c0,.068,0,.122-.007.175q-.191,2.651-.383,5.3a2.3,2.3,0,0,0,.077.814,1.052,1.052,0,0,0,.244.46.521.521,0,0,0,.615.135,1.137,1.137,0,0,0,.453-.319q.294-.344.559-.71c.67-.936,1.334-1.876,2-2.814s1.349-1.892,2.024-2.838L38.4,94.92a.29.29,0,0,1,.041-.041c.047.046.027.1.033.151.052.392.083.786.157,1.172a3.311,3.311,0,0,0,1.091,1.868,1.026,1.026,0,0,0,.7.28,2.913,2.913,0,0,0,.653-.06c.533-.126,1.063-.268,1.589-.421,1.364-.394,2.725-.8,4.087-1.2.047-.015.1-.025.164-.043-.012.06-.019.1-.031.148-.453,1.6-.91,3.2-1.359,4.8-.1.349-.177.7-.241,1.058a2.358,2.358,0,0,0-.018.572.989.989,0,0,0,.275.6,3.32,3.32,0,0,0,1.869,1.089c.365.07.738.1,1.108.149.063.008.127.012.232.021-.124.094-.216.167-.311.235q-2.068,1.474-4.138,2.947-1.646,1.175-3.3,2.347a3.77,3.77,0,0,0-.815.685,1.4,1.4,0,0,0-.216.365.524.524,0,0,0,.2.637,1.3,1.3,0,0,0,.754.251c.322.008.646-.011.968-.034q2.439-.17,4.876-.351a.464.464,0,0,0,.1-.036c-.021.107-.03.165-.043.222-.135.61-.269,1.222-.406,1.831a1.721,1.721,0,0,0,.176,1.3,2.212,2.212,0,0,0,.7.726c.645.423,1.3.836,1.947,1.253.349.225.7.446,1.074.686-.069.042-.122.075-.176.106l-3.843,2.22a2.376,2.376,0,0,0-.889.837,1.864,1.864,0,0,0-.238,1.252,2.81,2.81,0,0,0,.594,1.369c.047.06.092.119.152.2-.059,0-.095,0-.131,0q-4.2-.4-8.4-.79c-1.065-.1-2.131-.187-3.2-.28a2.553,2.553,0,0,0-1.5.277,1.625,1.625,0,0,0-.489.409,1.045,1.045,0,0,0-.191.4c-.147.591-.3,1.181-.446,1.77,0,.009-.013.016-.035.042-.954-1.264-1.89-2.536-2.836-3.8s-1.888-2.539-2.846-3.829q-3.228,3.343-6.436,6.667l-.823-.823,6.616-6.387c-.512-.4-1.025-.77-1.531-1.149s-1.008-.755-1.513-1.131-1.022-.755-1.532-1.134-1.009-.753-1.514-1.13l-1.544-1.15a.909.909,0,0,1,.105-.041c.589-.149,1.181-.294,1.769-.449a1.2,1.2,0,0,0,.715-.595,2.347,2.347,0,0,0,.324-1.436q-.139-1.731-.3-3.46-.382-4.121-.775-8.241c0-.042-.006-.085-.011-.166"/>
  </g>
  <g>
    <path class="cls-5" d="M17.627,151.26H16.262v-3.487H12.607v3.487H11.243v-8.176h1.364v3.594h3.655v-3.594h1.365Z"/>
    <path class="cls-5" d="M21.765,151.26H20.4v-8.176h1.364Z"/>
    <path class="cls-5" d="M30.6,150.153a2.861,2.861,0,0,1-1.075.851,4.224,4.224,0,0,1-1.906.374,3.226,3.226,0,0,1-2.384-.936,3.269,3.269,0,0,1-.935-2.417v-1.707a3.332,3.332,0,0,1,.9-2.417,3.091,3.091,0,0,1,2.325-.936,3.207,3.207,0,0,1,2.224.719,2.342,2.342,0,0,1,.774,1.876l-.017.033h-1.3a1.487,1.487,0,0,0-.43-1.111,1.885,1.885,0,0,0-2.6.213,2.462,2.462,0,0,0-.519,1.611v1.719a2.422,2.422,0,0,0,.542,1.626,1.766,1.766,0,0,0,1.413.637,2.951,2.951,0,0,0,1.039-.148,1.534,1.534,0,0,0,.579-.362v-1.69H27.521v-1.021H30.6Z"/>
    <path class="cls-5" d="M39.593,151.26H38.229v-3.487H34.573v3.487H33.209v-8.176h1.364v3.594h3.655v-3.594h1.365Z"/>
    <path class="cls-5" d="M47.425,148.16v3.1H46.061v-8.176h3.133a3.031,3.031,0,0,1,2.12.7,2.6,2.6,0,0,1,0,3.684,3.047,3.047,0,0,1-2.12.693Zm0-1.095h1.769a1.5,1.5,0,0,0,1.14-.4,1.438,1.438,0,0,0,.382-1.028,1.379,1.379,0,0,0-1.522-1.454H47.425Z"/>
    <path class="cls-5" d="M58.892,147.582h-3.2v2.588h3.773v1.09H54.327v-8.176h5.1v1.095H55.691v2.308h3.2Z"/>
    <path class="cls-5" d="M63,147.868v3.392H61.637v-8.176H64.45a3.23,3.23,0,0,1,2.111.617,2.159,2.159,0,0,1,.747,1.764,1.823,1.823,0,0,1-.328,1.092,2.253,2.253,0,0,1-.958.733,1.727,1.727,0,0,1,1,.713,2.282,2.282,0,0,1,.306,1.224v.68a2.747,2.747,0,0,0,.09.7,1.01,1.01,0,0,0,.3.522v.129h-1.4a.9.9,0,0,1-.287-.578,5.087,5.087,0,0,1-.062-.786v-.657a1.373,1.373,0,0,0-.362-1,1.319,1.319,0,0,0-.986-.37Zm0-1.095h1.376a1.856,1.856,0,0,0,1.2-.314,1.182,1.182,0,0,0,.376-.961,1.268,1.268,0,0,0-.371-.968,1.587,1.587,0,0,0-1.128-.352H63Z"/>
    <path class="cls-5" d="M74.557,147.772h-3.3v3.487H69.9v-8.176H75.13v1.095H71.261v2.5h3.3Z"/>
    <path class="cls-5" d="M83.631,147.907a3.456,3.456,0,0,1-.94,2.485,3.231,3.231,0,0,1-2.446.985,3.118,3.118,0,0,1-2.386-.985,3.5,3.5,0,0,1-.921-2.485v-1.471a3.505,3.505,0,0,1,.918-2.482,3.113,3.113,0,0,1,2.389-.988,3.229,3.229,0,0,1,2.443.988,3.453,3.453,0,0,1,.943,2.482Zm-1.365-1.482a2.541,2.541,0,0,0-.544-1.679,1.82,1.82,0,0,0-1.478-.657,1.716,1.716,0,0,0-1.423.657,2.622,2.622,0,0,0-.52,1.679v1.482a2.643,2.643,0,0,0,.522,1.693,1.714,1.714,0,0,0,1.42.659,1.817,1.817,0,0,0,1.48-.656,2.579,2.579,0,0,0,.541-1.7Z"/>
    <path class="cls-5" d="M87.387,147.868v3.392H86.022v-8.176h2.813a3.228,3.228,0,0,1,2.111.617,2.16,2.16,0,0,1,.747,1.764,1.823,1.823,0,0,1-.328,1.092,2.249,2.249,0,0,1-.958.733,1.726,1.726,0,0,1,1,.713,2.282,2.282,0,0,1,.306,1.224v.68a2.769,2.769,0,0,0,.09.7,1.01,1.01,0,0,0,.3.522v.129h-1.4a.9.9,0,0,1-.287-.578,5.086,5.086,0,0,1-.062-.786v-.657a1.369,1.369,0,0,0-.362-1,1.317,1.317,0,0,0-.985-.37Zm0-1.095h1.376a1.853,1.853,0,0,0,1.2-.314,1.182,1.182,0,0,0,.377-.961,1.268,1.268,0,0,0-.371-.968,1.588,1.588,0,0,0-1.129-.352H87.387Z"/>
    <path class="cls-5" d="M98.421,149.373h.033l2.364-6.289h1.74v8.176h-1.364v-5.873l-.033-.006-2.252,5.879h-.937l-2.291-5.991-.034.011v5.98H94.282v-8.176h1.791Z"/>
    <path class="cls-5" d="M109.584,149.351h-2.9l-.629,1.909h-1.409l2.853-8.176h1.3l2.819,8.176h-1.41Zm-2.521-1.14h2.151l-1.05-3.224h-.034Z"/>
    <path class="cls-5" d="M119.954,151.26h-1.365l-3.621-5.891-.034.012v5.879h-1.364v-8.176h1.364l3.622,5.891.033-.012v-5.879h1.365Z"/>
    <path class="cls-5" d="M128.591,148.587l.011.034a2.521,2.521,0,0,1-.8,2,3.161,3.161,0,0,1-2.229.761,3,3,0,0,1-2.313-.963,3.5,3.5,0,0,1-.887-2.463V146.4a3.531,3.531,0,0,1,.876-2.462,2.937,2.937,0,0,1,2.285-.969,3.3,3.3,0,0,1,2.271.735,2.5,2.5,0,0,1,.806,2.017l-.011.033h-1.32a1.68,1.68,0,0,0-.443-1.255,1.788,1.788,0,0,0-1.3-.436,1.55,1.55,0,0,0-1.316.66,2.733,2.733,0,0,0-.486,1.665v1.566a2.724,2.724,0,0,0,.494,1.677,1.6,1.6,0,0,0,1.348.659,1.528,1.528,0,0,0,1.707-1.7Z"/>
    <path class="cls-5" d="M135.422,147.582h-3.2v2.588H136v1.09h-5.138v-8.176h5.1v1.095h-3.734v2.308h3.2Z"/>
    <path class="cls-5" d="M11.249,165.66v-8.531h2.795a3.678,3.678,0,0,1,2.209.583,2.02,2.02,0,0,1,.8,1.743,1.713,1.713,0,0,1-.319,1.014,1.981,1.981,0,0,1-.888.686,1.914,1.914,0,0,1,1.263.709,2.145,2.145,0,0,1,.442,1.348,2.192,2.192,0,0,1-.785,1.825,3.4,3.4,0,0,1-2.168.624Zm1.424-4.939H14.2a1.606,1.606,0,0,0,1.046-.313,1.081,1.081,0,0,0,.384-.888,1.106,1.106,0,0,0-.4-.94,1.92,1.92,0,0,0-1.178-.308H12.672Zm0,1.061v2.742h1.922a1.713,1.713,0,0,0,1.137-.337,1.206,1.206,0,0,0,.4-.976,1.363,1.363,0,0,0-.393-1.025,1.6,1.6,0,0,0-1.1-.4H12.672Z"/>
    <path class="cls-5" d="M27.241,157.129v5.619a2.787,2.787,0,0,1-.935,2.229,3.561,3.561,0,0,1-2.411.806,3.448,3.448,0,0,1-2.367-.806,2.817,2.817,0,0,1-.914-2.229v-5.619h1.424v5.619a1.737,1.737,0,0,0,1.857,1.9,1.955,1.955,0,0,0,1.395-.5,1.831,1.831,0,0,0,.527-1.4v-5.619Z"/>
    <path class="cls-5" d="M32.282,165.66H30.858v-8.531h1.424Z"/>
    <path class="cls-5" d="M37.452,164.523h4v1.137h-5.42v-8.531h1.424Z"/>
    <path class="cls-5" d="M44.491,165.66v-8.531H47.31a3.577,3.577,0,0,1,2.64,1.014,3.524,3.524,0,0,1,1.017,2.607v1.295a3.512,3.512,0,0,1-1.017,2.607,3.588,3.588,0,0,1-2.64,1.008Zm1.424-7.389v6.252H47.31a2.048,2.048,0,0,0,1.629-.694,2.621,2.621,0,0,0,.6-1.784v-1.307a2.6,2.6,0,0,0-.6-1.772,2.048,2.048,0,0,0-1.629-.694Z"/>
    <path class="cls-5" d="M55.907,165.66H54.483v-8.531h1.424Z"/>
    <path class="cls-5" d="M66.315,165.66H64.892l-3.779-6.146-.035.012v6.135H59.653v-8.531h1.424l3.779,6.146.035-.012v-6.135h1.424Z"/>
    <path class="cls-5" d="M76.267,164.506a2.986,2.986,0,0,1-1.122.888,4.409,4.409,0,0,1-1.989.39,3.369,3.369,0,0,1-2.487-.976,3.413,3.413,0,0,1-.976-2.522V160.5a3.477,3.477,0,0,1,.943-2.522,3.226,3.226,0,0,1,2.426-.976,3.342,3.342,0,0,1,2.32.75,2.442,2.442,0,0,1,.809,1.957l-.018.035H74.819a1.552,1.552,0,0,0-.448-1.16,1.968,1.968,0,0,0-2.713.223,2.568,2.568,0,0,0-.542,1.682v1.793a2.527,2.527,0,0,0,.565,1.7,1.842,1.842,0,0,0,1.474.665,3.065,3.065,0,0,0,1.084-.155,1.6,1.6,0,0,0,.6-.378V162.35H73.056v-1.066h3.211Z"/>
    <path class="cls-5" d="M89.161,163.469a1.121,1.121,0,0,0-.378-.873,3.479,3.479,0,0,0-1.339-.609,5.71,5.71,0,0,1-2.124-1,2,2,0,0,1-.747-1.614,2.1,2.1,0,0,1,.82-1.7,3.233,3.233,0,0,1,2.109-.668,3.2,3.2,0,0,1,2.212.741,2.271,2.271,0,0,1,.8,1.831l-.012.035H89.132a1.363,1.363,0,0,0-.448-1.072,1.729,1.729,0,0,0-1.192-.4,1.638,1.638,0,0,0-1.11.34,1.112,1.112,0,0,0-.39.879.974.974,0,0,0,.428.812,4.647,4.647,0,0,0,1.418.606,4.957,4.957,0,0,1,2.045,1.022,2.15,2.15,0,0,1,.7,1.655,2.02,2.02,0,0,1-.832,1.693,3.516,3.516,0,0,1-2.186.633,3.8,3.8,0,0,1-2.268-.691,2.19,2.19,0,0,1-.937-1.951l.012-.035h1.371a1.344,1.344,0,0,0,.53,1.157,2.122,2.122,0,0,0,1.292.39,1.9,1.9,0,0,0,1.175-.319A1.03,1.03,0,0,0,89.161,163.469Z"/>
    <path class="cls-5" d="M100.4,157.129v5.619a2.787,2.787,0,0,1-.935,2.229,3.561,3.561,0,0,1-2.411.806,3.448,3.448,0,0,1-2.367-.806,2.817,2.817,0,0,1-.914-2.229v-5.619h1.424v5.619a1.737,1.737,0,0,0,1.857,1.9,1.955,1.955,0,0,0,1.395-.5,1.831,1.831,0,0,0,.527-1.4v-5.619Z"/>
    <path class="cls-5" d="M105.319,162.426v3.234H103.9v-8.531h3.27a3.161,3.161,0,0,1,2.212.729,2.709,2.709,0,0,1,0,3.844,3.177,3.177,0,0,1-2.212.724Zm0-1.143h1.846a1.561,1.561,0,0,0,1.189-.422,1.5,1.5,0,0,0,.4-1.072,1.438,1.438,0,0,0-1.588-1.518h-1.846Z"/>
    <path class="cls-5" d="M114.8,162.426v3.234h-1.424v-8.531h3.27a3.161,3.161,0,0,1,2.212.729,2.709,2.709,0,0,1,0,3.844,3.177,3.177,0,0,1-2.212.724Zm0-1.143h1.846a1.561,1.561,0,0,0,1.189-.422,1.5,1.5,0,0,0,.4-1.072,1.438,1.438,0,0,0-1.588-1.518H114.8Z"/>
    <path class="cls-5" d="M124.272,164.523h4v1.137h-5.42v-8.531h1.424Z"/>
    <path class="cls-5" d="M132.577,161.277l2.057-4.148h1.588l-2.959,5.549v2.982h-1.418v-3.07l-2.912-5.461h1.588Z"/>
  </g>
  <g>
    <path class="cls-5" d="M15.385,179.037H12.118v3.33h-.586v-7.109h4.351v.5H12.118v2.778h3.267Z"/>
    <path class="cls-5" d="M24.445,179.394a3.229,3.229,0,0,1-.754,2.227,2.572,2.572,0,0,1-2.024.85,2.519,2.519,0,0,1-1.995-.85,3.254,3.254,0,0,1-.745-2.227v-1.157a3.273,3.273,0,0,1,.742-2.227,2.506,2.506,0,0,1,1.992-.854,2.573,2.573,0,0,1,2.026.854,3.233,3.233,0,0,1,.757,2.227Zm-.581-1.167a2.81,2.81,0,0,0-.583-1.855,1.989,1.989,0,0,0-1.619-.7,1.917,1.917,0,0,0-1.582.7,2.869,2.869,0,0,0-.566,1.855v1.167a2.876,2.876,0,0,0,.569,1.865,1.925,1.925,0,0,0,1.584.7,1.983,1.983,0,0,0,1.619-.7,2.843,2.843,0,0,0,.579-1.868Z"/>
    <path class="cls-5" d="M33.144,175.258v4.722a2.362,2.362,0,0,1-.718,1.831,2.622,2.622,0,0,1-1.846.659,2.554,2.554,0,0,1-1.819-.661,2.386,2.386,0,0,1-.706-1.829v-4.722h.586v4.722a1.962,1.962,0,0,0,.544,1.458,1.9,1.9,0,0,0,1.394.539,1.967,1.967,0,0,0,1.426-.537,1.935,1.935,0,0,0,.557-1.46v-4.722Z"/>
    <path class="cls-5" d="M37.619,179.154v3.213h-.586v-7.1H39.4a2.7,2.7,0,0,1,1.753.5,1.78,1.78,0,0,1,.61,1.462,1.677,1.677,0,0,1-.325,1.013,1.834,1.834,0,0,1-.92.652,1.546,1.546,0,0,1,.95.594,1.86,1.86,0,0,1,.291,1.071v.669a2.089,2.089,0,0,0,.078.6.925.925,0,0,0,.259.43v.117h-.6a.973.973,0,0,1-.254-.493,2.927,2.927,0,0,1-.073-.659v-.649a1.314,1.314,0,0,0-.422-1.032,1.7,1.7,0,0,0-1.179-.379Zm0-.5h1.714a2.1,2.1,0,0,0,1.406-.389,1.317,1.317,0,0,0,.444-1.047,1.348,1.348,0,0,0-.442-1.082,2.021,2.021,0,0,0-1.34-.378H37.619Z"/>
    <path class="cls-5" d="M49.77,180.639a1.119,1.119,0,0,0-.435-.9,4.432,4.432,0,0,0-1.475-.669,4.919,4.919,0,0,1-1.731-.779,1.524,1.524,0,0,1-.593-1.267,1.636,1.636,0,0,1,.664-1.341,2.651,2.651,0,0,1,1.694-.524,2.511,2.511,0,0,1,1.743.593,1.882,1.882,0,0,1,.64,1.507l-.01.029h-.547a1.51,1.51,0,0,0-.51-1.167,1.879,1.879,0,0,0-1.316-.464,1.968,1.968,0,0,0-1.3.394,1.21,1.21,0,0,0-.471.964,1.1,1.1,0,0,0,.427.892,4.383,4.383,0,0,0,1.506.651,4.912,4.912,0,0,1,1.714.806,1.552,1.552,0,0,1,.591,1.27,1.579,1.579,0,0,1-.691,1.336,2.877,2.877,0,0,1-1.741.5,3.17,3.17,0,0,1-1.831-.534,1.719,1.719,0,0,1-.757-1.561l.01-.029h.542a1.366,1.366,0,0,0,.62,1.229,2.549,2.549,0,0,0,1.416.4,2.208,2.208,0,0,0,1.328-.373A1.147,1.147,0,0,0,49.77,180.639Z"/>
    <path class="cls-5" d="M57.761,178.925H54.572v2.949h3.687v.493H53.986v-7.109h4.248v.5H54.572v2.671h3.188Z"/>
    <path class="cls-5" d="M63.691,181.122l.142.5h.029l.142-.5,2.139-5.864h.63l-2.646,7.109h-.557l-2.646-7.109h.635Z"/>
    <path class="cls-5" d="M73.786,178.925H70.6v2.949h3.687v.493H70.012v-7.109H74.26v.5H70.6v2.671h3.188Z"/>
    <path class="cls-5" d="M82.953,182.367h-.586l-4.037-6.084-.029,0v6.079h-.586v-7.109H78.3l4.037,6.069.029,0v-6.064h.586Z"/>
    <path class="cls-5" d="M90.813,179.037H87.546v3.33H86.96v-7.109h4.351v.5H87.546v2.778h3.267Z"/>
    <path class="cls-5" d="M95.4,182.367H94.81v-7.109H95.4Z"/>
    <path class="cls-5" d="M101.555,181.122l.142.5h.029l.142-.5,2.139-5.864h.63l-2.646,7.109h-.557l-2.646-7.109h.635Z"/>
    <path class="cls-5" d="M111.65,178.925h-3.188v2.949h3.687v.493h-4.272v-7.109h4.248v.5h-3.662v2.671h3.188Z"/>
    <path class="cls-5" d="M116.154,182.367h-.669v-.8h.669Z"/>
    <path class="cls-5" d="M125.054,180.146l.01.029a2.07,2.07,0,0,1-.684,1.67,2.673,2.673,0,0,1-1.846.625,2.391,2.391,0,0,1-1.914-.856,3.312,3.312,0,0,1-.728-2.22v-1.157a3.318,3.318,0,0,1,.728-2.219,2.382,2.382,0,0,1,1.914-.862,2.7,2.7,0,0,1,1.853.61,2.063,2.063,0,0,1,.677,1.68l-.01.029h-.547a1.725,1.725,0,0,0-.524-1.34,2.062,2.062,0,0,0-1.448-.481,1.807,1.807,0,0,0-1.5.723,2.924,2.924,0,0,0-.563,1.851v1.167a2.936,2.936,0,0,0,.563,1.862,1.808,1.808,0,0,0,1.5.721,2.1,2.1,0,0,0,1.448-.469,1.732,1.732,0,0,0,.524-1.362Z"/>
    <path class="cls-5" d="M132.478,180.385h-3.12l-.718,1.982h-.605l2.612-7.109h.552l2.593,7.109h-.605Zm-2.935-.522h2.744l-1.348-3.77h-.029Z"/>
  </g>
  <line class="cls-6" x1="10" y1="170" x2="134.428" y2="170"/>
</svg>
