<svg id="Layer_1" data-name="Layer 1" xmlns="http://www.w3.org/2000/svg" viewBox="0 0 498.043 500">
  <defs>
    <style>
      .cls-1 {
        fill: none;
      }

      .cls-2 {
        fill: #fff;
      }
    </style>
  </defs>
  <title>back-to-top-white</title>
  <rect class="cls-1" width="498.043" height="500"/>
  <path class="cls-2" d="M335.832,226.114l-80.139-80.139a8.713,8.713,0,0,0-12.322,0L163.143,226.2a8.713,8.713,0,0,0,0,12.322l1.82,1.82a8.713,8.713,0,0,0,12.322,0l63.489-63.489v172.7a8.713,8.713,0,0,0,8.713,8.713h0a8.713,8.713,0,0,0,8.713-8.713V176.767l63.489,63.489a8.713,8.713,0,0,0,12.322,0l1.82-1.82A8.713,8.713,0,0,0,335.832,226.114Z" transform="translate(-0.466 -0.846)"/>
</svg>
