<?xml version="1.0" encoding="utf-8"?>
<!-- Generator: Adobe Illustrator 19.0.0, SVG Export Plug-In . SVG Version: 6.00 Build 0)  -->
<!DOCTYPE svg PUBLIC "-//W3C//DTD SVG 1.1//EN" "http://www.w3.org/Graphics/SVG/1.1/DTD/svg11.dtd" [
	<!ENTITY ns_extend "http://ns.adobe.com/Extensibility/1.0/">
	<!ENTITY ns_ai "http://ns.adobe.com/AdobeIllustrator/10.0/">
	<!ENTITY ns_graphs "http://ns.adobe.com/Graphs/1.0/">
	<!ENTITY ns_vars "http://ns.adobe.com/Variables/1.0/">
	<!ENTITY ns_imrep "http://ns.adobe.com/ImageReplacement/1.0/">
	<!ENTITY ns_sfw "http://ns.adobe.com/SaveForWeb/1.0/">
	<!ENTITY ns_custom "http://ns.adobe.com/GenericCustomNamespace/1.0/">
	<!ENTITY ns_adobe_xpath "http://ns.adobe.com/XPath/1.0/">
]>
<svg version="1.1" xmlns:x="&ns_extend;" xmlns:i="&ns_ai;" xmlns:graph="&ns_graphs;"
	 xmlns="http://www.w3.org/2000/svg" xmlns:xlink="http://www.w3.org/1999/xlink" x="0px" y="0px" viewBox="0 0 150 150"
	 style="enable-background:new 0 0 150 150;" xml:space="preserve">
<style type="text/css">
	.st0{display:none;}
	.st1{display:inline;}
	.st2{fill:none;stroke:#276EA4;stroke-width:3;stroke-miterlimit:10;}
	.st3{display:inline;fill:none;stroke:#276EA4;stroke-width:3;stroke-miterlimit:10;}
	.st4{fill:none;stroke:#1C75BC;stroke-width:3;stroke-miterlimit:10;}
</style>
<metadata>
	<sfw  xmlns="&ns_sfw;">
		<slices></slices>
		<sliceSourceBounds  width="105" height="79.1" y="-111.4" x="18.5" bottomLeftOrigin="true"></sliceSourceBounds>
	</sfw>
</metadata>
<g id="Layer_2" class="st0">
	<g id="XMLID_43_" class="st1">
		<path id="XMLID_45_" class="st2" d="M63.2,50.4c0,0,0.4-0.2,1-0.5c-0.1,0-0.2,0-0.3,0C63.5,50,63,50,62.6,50.1
			C63,50.3,63.2,50.4,63.2,50.4z"/>
		<path id="XMLID_44_" class="st2" d="M104.4,78.6c-1.6-4.9-5.4-14.4-6.7-13.1c-1.3,1.3,1.5,5.9,1.5,5.9s-7.3-9-14-11
			s-14.9,7.2-15.6,6.8s0.8-6.8,3.7-10c2.9-3.2,5.9-4.1,5.9-4.1s-6.2-1.8-13.1,2.2c-6.9,4-10.5,11.8-12,11.9c-0.8,0.1,0.1-4.3,2-7.9
			c2.1-4,5.2-7.2,5.2-7.2s-2.6-0.3-8.5,3.9s-7,6.7-7.7,6.3c-0.4-0.2,1.4-3.7,4-6.8c-0.3,0.2-0.5,0.3-0.8,0.5
			c-4,2.9-10.1,10.4-12.5,15.5S29.9,88,29.9,88s11.9,8,30.3,11s42.8,2.5,42.8,2.5S106.1,83.9,104.4,78.6z"/>
	</g>
	<path id="XMLID_42_" class="st3" d="M60.6,99.6C42.2,96.6,29.9,88,29.9,88s-9.1,2.9-9.1,8.2c0.4,2.7,1.8,3.9,13.5,8.8
		c11.8,4.9,20.6,5.1,25.4,4.9s16.4-1.6,22.4-3.3c6-1.7,20.9-5.1,20.9-5.1S79,102.6,60.6,99.6z"/>
	<path id="XMLID_2_" class="st3" d="M52.8,67.8c1.5-0.1,7-10,13.7-13.8s14-1.3,14-1.3s-4.2,0-7,3.1c-2.8,3.1-5.2,11.7-4.5,12.1
		s9.5-10.9,16-9c6.5,1.9,13.6,10.4,13.6,10.4s-0.3-5.8-4.8-10.6s-12-6.5-12-6.5s-3.6-4.9-9-4.9c-5.4,0-9.1,2.2-9.1,2.2
		s-2.4-1.8-7.7,0c-5.2,1.8-12.4,12.6-11.7,12.9c0.7,0.4,3.6-3.8,9.3-7.7s8.2-3.7,8.2-3.7s-3,3-5,6.8C55,61.2,52.1,67.9,52.8,67.8z"
		/>
</g>
<g id="Layer_1">
	<path id="XMLID_46_" class="st4" d="M33.3,84.3c0,0-14.5,2.7-13.2,9s18.5,13.6,37.5,16.3s62.2-9.9,62.2-9.9s7.5-26.3-5.3-43.3
		S93.7,40.9,93.7,40.9s-3.3-5.9-9.4-6.9c-6.1-0.9-13.2,4.6-13.2,4.6s-2.6-3.8-8.3-2C57.1,38.4,33.8,60.9,33.3,84.3z"/>
	<path id="XMLID_1_" class="st4" d="M33.3,84.3c0,0,9.8,6.4,27.1,11c23.7,6.3,59.5,4.4,59.5,4.4"/>
	<path id="XMLID_48_" class="st4" d="M58.2,39.4c-3.2,2.8-6.4,10.4-6.4,10.4c-0.4,0.6,0.3,1.3,0.9,0.9c0,0,2.3-2.6,9-6.8
		s9.1-5.8,9.1-5.8c0.3-0.2,0.7,0.2,0.4,0.5c0,0-1.2,0.6-4.1,5.2s-4.3,7.9-4.3,7.9c-0.4,0.6,0.4,1.3,0.9,0.8
		c3.1-2.9,7.4-6.6,11.4-8.8c7.5-4,17-2.3,17-2.3s-5.6,1.7-9.4,6.2c-1.6,1.9-2.9,3.9-3.9,5.7c-0.6,1.1,0.6,2.2,1.6,1.5
		c3.5-2.4,9.1-5.3,14.7-5.3c9.4,0,21.3,9.6,21.3,9.6"/>
</g>
</svg>
