<svg id="Layer_1" data-name="Layer 1" xmlns="http://www.w3.org/2000/svg" viewBox="0 0 277.777 338.016">
  <defs>
    <style>
      .cls-1, .cls-2 {
        fill: none;
        stroke: #093960;
        stroke-linecap: round;
        stroke-linejoin: round;
      }

      .cls-1 {
        stroke-width: 10px;
      }

      .cls-2 {
        stroke-width: 6px;
      }
    </style>
  </defs>
  <title>labs-partnerships</title>
  <path class="cls-1" d="M304.492,207,380.3,354.5a42.523,42.523,0,0,1-38.985,59.507H158.682A42.523,42.523,0,0,1,119.7,354.5L195.507,207c10.805-24.8,16.382-27.17,16.381-54.224V108.158H183.632a7.7,7.7,0,0,1-7.7-7.7V93.692a7.7,7.7,0,0,1,7.7-7.7H316.368a7.7,7.7,0,0,1,7.7,7.7v6.767a7.7,7.7,0,0,1-7.7,7.7H288.111v44.616C288.111,179.828,293.687,182.2,304.492,207Z" transform="translate(-111.112 -80.992)"/>
  <line class="cls-2" x1="148.226" y1="141.651" x2="199.795" y2="141.651"/>
  <line class="cls-2" x1="189.188" y1="223.722" x2="240.756" y2="223.722"/>
  <line class="cls-2" x1="179.514" y1="169.008" x2="211.741" y2="169.008"/>
  <line class="cls-2" x1="195.627" y1="196.365" x2="227.854" y2="196.365"/>
  <line class="cls-2" x1="212.443" y1="305.792" x2="264.012" y2="305.792"/>
  <line class="cls-2" x1="223.983" y1="251.079" x2="256.211" y2="251.079"/>
  <line class="cls-2" x1="236.915" y1="278.435" x2="269.142" y2="278.435"/>
</svg>
