<?xml version="1.0" encoding="utf-8"?>
<!-- Generator: Adobe Illustrator 21.1.0, SVG Export Plug-In . SVG Version: 6.00 Build 0)  -->
<svg version="1.1" id="Layer_1" xmlns="http://www.w3.org/2000/svg" xmlns:xlink="http://www.w3.org/1999/xlink" x="0px" y="0px"
	 viewBox="0 0 356.4 107.7" style="enable-background:new 0 0 356.4 107.7;" xml:space="preserve">
<style type="text/css">
	.st0{fill:none;}
	.st1{fill:#C48748;}
	.st2{fill:#235685;}
	.st3{fill:#8C212B;}
</style>
<g>
	<g>
		<path class="st0" d="M74.5,48.8c-1.8-0.8-3.4-1.6-5.1-2.5c-1.4-0.8-2.8-1.8-4.1-2.7c-1.3,0.9-2.6,1.8-3.9,2.5
			c-1.4,0.8-2.9,1.6-4.4,2.2c0.3,1.8,0.3,3.8,0.3,5.7c0,1.8-0.1,3.6-0.3,5.4c1.5,0.7,2.9,1.3,4.3,2.2c1.4,0.8,2.8,1.8,4.1,2.7
			c1.5-1.2,3.1-2.2,4.8-3.2c1.4-0.8,2.9-1.5,4.4-2.2c-0.2-1.7-0.3-3.4-0.3-5.2C74.2,52.1,74.3,50.4,74.5,48.8z"/>
		<path class="st1" d="M54.3,76.8l-2.9,5.1c-0.5,0.8-0.2,1.9,0.7,2.4c0.3,0.2,0.6,0.3,0.9,0.3c0.6,0,1.2-0.3,1.5-0.8l2.9-5.1
			c2.1-3.7,4.8-7.1,8-9.8c-0.9-0.8-1.8-1.5-2.8-2.2C59.4,69.6,56.6,73,54.3,76.8z"/>
		<path class="st1" d="M113.4,53.5c-1-1.7-2.5-2.9-4.5-3.4c-1.9-0.5-3.9-0.3-5.5,0.8s-2.9,2.5-3.4,4.5c0,0.1,0,0.1,0,0.2h-8.3
			c-4.7,0-9.3,0.8-13.7,2.3c0.1,1.2,0.3,2.4,0.5,3.5c4.2-1.5,8.7-2.3,13.2-2.3h8.3c0.2,0.7,0.4,1.3,0.8,1.9c1,1.7,2.5,2.9,4.5,3.4
			c0.7,0.2,1.3,0.3,1.9,0.3c1.3,0,2.5-0.3,3.6-1c1.7-1,2.9-2.5,3.4-4.5C114.6,57.2,114.4,55.2,113.4,53.5z M110.7,58.2
			c-0.3,1-0.9,1.8-1.8,2.4c-0.9,0.5-1.9,0.7-2.9,0.4c-1-0.3-1.8-0.9-2.4-1.8c0-0.1-0.1-0.1-0.1-0.2c-0.4-0.8-0.6-1.8-0.3-2.8
			c0.1-0.3,0.2-0.5,0.3-0.8c0.3-0.7,0.8-1.2,1.5-1.6c0.6-0.3,1.3-0.5,1.9-0.5c0.3,0,0.7,0.1,1,0.2c1,0.3,1.8,0.9,2.4,1.8
			C110.9,56.1,110.9,57.2,110.7,58.2z"/>
		<path class="st1" d="M70.1,61.2c-1.7,0.9-3.3,2-4.8,3.2c1,0.8,1.9,1.5,2.9,2.3c1.2-0.8,2.4-1.7,3.7-2.4c1.1-0.6,2.1-1.2,3.2-1.7
			c-0.3-1.2-0.4-2.4-0.6-3.6C73,59.6,71.5,60.3,70.1,61.2z"/>
		<path class="st2" d="M39.8,55.8h-5.9l0,0c-0.9,0-1.8,0.8-1.8,1.8c0,1,0.8,1.8,1.8,1.8h5.9c4.5,0,9,0.8,13.3,2.4
			c0.3-1.2,0.4-2.4,0.5-3.5C49.1,56.6,44.5,55.8,39.8,55.8z"/>
		<path class="st2" d="M61.2,61.6c-1.4-0.8-2.9-1.5-4.3-2.2c-0.2,1.2-0.3,2.4-0.6,3.6c1.1,0.5,2.1,1,3.2,1.7c1.1,0.6,2.1,1.3,3.1,2
			c0.9-0.8,1.8-1.6,2.8-2.4C64.1,63.4,62.6,62.4,61.2,61.6z"/>
		<path class="st2" d="M73.9,79.1l4.2,7.2c-0.5,0.5-1,1.1-1.3,1.7c-1,1.7-1.3,3.7-0.8,5.5c0.5,1.9,1.7,3.4,3.4,4.5
			c1.1,0.7,2.4,1,3.6,1c0.7,0,1.3-0.1,1.9-0.3c1.9-0.5,3.4-1.7,4.5-3.4c2-3.5,0.8-8-2.7-10c-1.7-1-3.7-1.3-5.5-0.8c0,0,0,0-0.1,0
			l-4.2-7.3c-2.3-3.9-5.3-7.6-8.7-10.6c-0.9,0.7-1.8,1.4-2.8,2.3C68.8,71.8,71.7,75.2,73.9,79.1z M79.8,89.7
			c0.1-0.1,0.1-0.2,0.2-0.3c0.5-0.8,1.3-1.3,2.2-1.5c0.3-0.1,0.6-0.1,0.9-0.2h0.1c0.7,0,1.3,0.2,1.9,0.5c1.8,1.1,2.4,3.4,1.4,5.2
			c-0.5,0.9-1.3,1.5-2.4,1.8c-1,0.3-2,0.2-2.9-0.4c-0.9-0.5-1.5-1.3-1.8-2.4C79.2,91.7,79.3,90.7,79.8,89.7z"/>
		<path class="st1" d="M62.6,66.6c1,0.7,1.9,1.4,2.8,2.2c0.9-0.8,1.8-1.5,2.8-2.3c-0.9-0.8-1.8-1.6-2.9-2.3
			C64.4,65,63.5,65.8,62.6,66.6z"/>
		<path class="st0" d="M42.2,84.5c-0.2,0-0.3-0.1-0.5-0.1c-2.1,0-3.8,1.7-3.8,3.8s1.7,3.8,3.8,3.8c2.1,0,3.8-1.7,3.8-3.8
			c0-0.6-0.2-1.2-0.4-1.8C44.6,85.5,43.5,84.8,42.2,84.5z"/>
		<path class="st0" d="M27.4,48.2c-0.5-0.9-1.3-1.5-2.4-1.8c-0.3-0.1-0.7-0.2-1-0.2c-0.7,0-1.3,0.2-1.9,0.5
			c-0.9,0.5-1.5,1.3-1.8,2.4s-0.2,2,0.4,2.9c1.1,1.8,3.4,2.4,5.2,1.4l0,0c0.7-0.4,1.2-0.9,1.5-1.5c0.6-1.1,0.6-2.4,0-3.5
			C27.4,48.3,27.4,48.2,27.4,48.2z"/>
		<path class="st3" d="M51.6,32.5l-2.9-5.1c-0.5-0.8-1.5-1.2-2.4-0.7c-0.8,0.5-1.1,1.5-0.7,2.4l2.9,5.1C50.6,38,52.1,42,53,46.1
			c1.1-0.4,2.3-0.8,3.3-1.3C55.4,40.5,53.8,36.4,51.6,32.5z"/>
		<path class="st3" d="M57.3,54c0-1.9-0.1-3.8-0.3-5.7c-1.1,0.5-2.3,0.9-3.4,1.3c0.2,1.4,0.3,2.9,0.3,4.4c0,1.3-0.1,2.7-0.3,4
			c1.2,0.4,2.3,0.8,3.4,1.3C57.2,57.7,57.3,55.8,57.3,54z"/>
		<path class="st3" d="M48.4,73.8l-4.4,7.6c-0.8-0.3-1.5-0.4-2.4-0.4c-4,0-7.3,3.3-7.3,7.3c0,4,3.3,7.3,7.3,7.3s7.3-3.3,7.3-7.3
			c0-1.9-0.8-3.7-2-5l4.5-7.8c2.3-3.9,3.9-8.1,4.8-12.5c-1.1-0.5-2.2-0.9-3.3-1.3C52.2,65.9,50.6,70,48.4,73.8z M41.7,92.2
			c-2.1,0-3.8-1.7-3.8-3.8c0-2.1,1.7-3.8,3.8-3.8c0.2,0,0.3,0,0.5,0.1c1.3,0.2,2.4,0.9,2.9,2c0.3,0.5,0.4,1.1,0.4,1.8
			C45.5,90.4,43.8,92.2,41.7,92.2z"/>
		<path class="st2" d="M53.6,58.1c-0.2,1.2-0.3,2.4-0.5,3.5c1.1,0.4,2.2,0.8,3.3,1.3c0.3-1.2,0.4-2.4,0.6-3.6
			C55.8,58.9,54.7,58.5,53.6,58.1z"/>
		<path class="st1" d="M39.9,48.3h-8.7c-0.2-0.7-0.4-1.3-0.8-1.9c-1-1.7-2.5-2.9-4.5-3.4s-3.9-0.3-5.5,0.8s-2.9,2.5-3.4,4.5
			c-0.5,1.9-0.3,3.9,0.8,5.6c1.3,2.4,3.9,3.7,6.4,3.7c1.3,0,2.5-0.3,3.7-1l0,0c1.8-1,3-2.7,3.4-4.6H40c4.7,0,9.3-0.8,13.7-2.3
			c-0.2-1.2-0.3-2.4-0.6-3.5C48.8,47.6,44.3,48.3,39.9,48.3z M27.4,51.9c-0.3,0.6-0.8,1.2-1.5,1.5l0,0c-1.8,1.1-4.2,0.4-5.2-1.4
			C20.2,51,20,50,20.3,49c0.3-1,0.9-1.8,1.8-2.4c0.6-0.3,1.3-0.5,1.9-0.5c0.3,0,0.7,0.1,1,0.2c1,0.3,1.8,0.9,2.4,1.8
			c0,0.1,0.1,0.1,0.1,0.2C28,49.5,27.9,50.8,27.4,51.9z"/>
		<path class="st1" d="M77.1,30.4l2.9-5.1c0.5-0.8,0.2-1.9-0.7-2.4c-0.8-0.5-1.9-0.2-2.4,0.7L74,28.7c-2.4,3.9-5.3,7.5-8.8,10.4
			c0.9,0.8,1.8,1.5,2.9,2.2C71.7,38.3,74.7,34.6,77.1,30.4z"/>
		<path class="st1" d="M61.4,46.1c1.3-0.8,2.7-1.7,3.9-2.5c-1-0.8-1.9-1.5-2.9-2.3c-0.9,0.7-1.8,1.3-2.9,1.8
			c-1.1,0.6-2.2,1.2-3.3,1.7c0.3,1.2,0.5,2.4,0.6,3.5C58.4,47.7,59.9,47,61.4,46.1z"/>
		<path class="st3" d="M56.3,44.8c-1.1,0.5-2.2,0.9-3.3,1.3c0.3,1.2,0.4,2.4,0.6,3.5c1.2-0.4,2.3-0.8,3.4-1.3
			C56.8,47.2,56.6,46,56.3,44.8z"/>
		<path class="st0" d="M49.5,12.6c-0.6-0.3-1.3-0.5-1.9-0.5c-0.3,0-0.7,0.1-1,0.2c-1,0.3-1.8,0.9-2.4,1.8C43.7,15,43.6,16,43.8,17
			c0.3,1,0.9,1.8,1.8,2.4l0,0c0.5,0.3,1.1,0.5,1.7,0.5c0.4,0,0.8,0,1.2-0.1c0.8-0.3,1.5-0.7,2-1.3c0.1-0.2,0.2-0.3,0.3-0.4
			c0.5-0.9,0.7-1.9,0.4-2.9C51,14,50.5,13.1,49.5,12.6z"/>
		<path class="st2" d="M56.7,28.8l-4.3-7.4c0.6-0.5,1.1-1.2,1.5-1.8c1-1.7,1.3-3.7,0.8-5.5s-1.7-3.4-3.4-4.5c-1.7-1-3.7-1.3-5.5-0.8
			c-1.9,0.5-3.4,1.7-4.5,3.4c-1,1.7-1.3,3.7-0.8,5.5c0.5,1.8,1.7,3.4,3.4,4.5c1.1,0.7,2.4,1,3.6,1c0.6,0,1.2-0.1,1.8-0.3l4.4,7.5
			c2.4,4,5.3,7.6,8.7,10.8c1-0.7,1.9-1.4,2.9-2.2C61.9,36.2,58.9,32.7,56.7,28.8z M51,17.8c-0.1,0.2-0.2,0.3-0.3,0.4
			c-0.5,0.7-1.2,1.1-2,1.3c-0.4,0.1-0.8,0.2-1.2,0.1c-0.6,0-1.2-0.2-1.7-0.5l0,0c-0.9-0.5-1.5-1.3-1.8-2.4c-0.3-1-0.2-2,0.4-2.9
			c0.6-0.9,1.3-1.5,2.4-1.8c0.3-0.1,0.7-0.2,1-0.2c0.7,0,1.3,0.2,1.9,0.5c0.9,0.5,1.5,1.3,1.8,2.4C51.5,15.9,51.5,17,51,17.8z"/>
		<path class="st2" d="M69.4,46.3c1.7,0.9,3.4,1.8,5.1,2.5c0.2-1.2,0.3-2.4,0.6-3.6c-1.3-0.6-2.7-1.3-3.9-2c-1-0.6-2-1.3-3-1.9
			c-0.9,0.8-1.8,1.5-2.9,2.3C66.6,44.6,67.9,45.5,69.4,46.3z"/>
		<path class="st1" d="M68.1,41.4c-1-0.7-1.9-1.4-2.9-2.2c-0.9,0.8-1.8,1.5-2.9,2.2c0.9,0.8,1.8,1.6,2.9,2.3
			C66.2,42.9,67.2,42.1,68.1,41.4z"/>
		<path class="st2" d="M90.9,52.1h5.9l0,0c1,0,1.8-0.8,1.8-1.8c0-1-0.8-1.8-1.8-1.8h-5.9c-4.3,0-8.5-0.8-12.4-2.1
			c-0.3,1.2-0.4,2.4-0.5,3.5C82,51.4,86.4,52.1,90.9,52.1z"/>
		<path class="st3" d="M74.2,53.8c0,1.8,0.1,3.4,0.3,5.2c1.1-0.5,2.3-0.9,3.4-1.3c-0.1-1.3-0.2-2.6-0.2-3.9c0-1.3,0.1-2.4,0.2-3.7
			c-1.2-0.3-2.3-0.8-3.4-1.3C74.3,50.4,74.2,52.1,74.2,53.8z"/>
		<path class="st3" d="M79.9,75.3l2.9,5.1c0.3,0.6,0.9,0.9,1.5,0.9c0.3,0,0.6-0.1,0.8-0.3c0.8-0.5,1.1-1.5,0.7-2.4l-2.9-5.1
			c-2.2-3.9-3.7-8-4.5-12.3c-1.1,0.4-2.3,0.8-3.3,1.3C76,67,77.6,71.3,79.9,75.3z"/>
		<path class="st3" d="M74.5,58.9c0.2,1.2,0.3,2.4,0.6,3.6c1.1-0.5,2.2-0.9,3.3-1.3c-0.3-1.2-0.4-2.4-0.5-3.5
			C76.7,58.1,75.7,58.5,74.5,58.9z"/>
		<path class="st3" d="M83,34.1l4.2-7.3c0.6,0.2,1.3,0.3,1.9,0.3c4,0,7.3-3.3,7.3-7.3s-3.3-7.3-7.3-7.3s-7.3,3.3-7.3,7.3
			c0,2.1,0.9,4,2.4,5.4L80,32.4c-2.4,4-4,8.4-5,13c1.1,0.5,2.2,0.9,3.4,1.3C79.2,42.1,80.8,37.9,83,34.1z M89.2,15.8
			c2.1,0,3.8,1.7,3.8,3.8s-1.7,3.8-3.8,3.8h-0.1c-1.3,0-2.4-0.7-3.1-1.7c-0.4-0.6-0.7-1.3-0.7-2.1C85.4,17.5,87.1,15.8,89.2,15.8z"
			/>
		<path class="st2" d="M77.9,50.1c0.1-1.2,0.3-2.4,0.5-3.5c-1.1-0.4-2.3-0.8-3.4-1.3c-0.3,1.2-0.4,2.4-0.6,3.6
			C75.6,49.3,76.7,49.7,77.9,50.1z"/>
	</g>
</g>
<g>
	<path d="M141.7,41.3h-7.5v-2.8h18.1v2.8h-7.4v25.2h-3.2V41.3z"/>
	<path d="M162.6,66.5v-28h14.9v2.8h-11.7v9.6h10.3v2.8h-10.3v10H178v2.8H162.6z"/>
	<path d="M200.3,38.5l9.1,28H206l-2.6-8.2h-11.3l-2.6,8.2h-3.3l9.1-28H200.3z M193.1,55.5h9.4l-3-9.4c-0.6-2-1.1-3.7-1.6-5.4h-0.2
		c-0.5,1.7-1,3.4-1.6,5.3L193.1,55.5z"/>
	<path d="M232.9,58.5l8-20h5.1v28h-3.1V42.2h-0.2c-2.7,6.7-5.6,13.6-8.3,20.2H231l-8.2-20.2h-0.2v24.3h-3v-28h5.1l8,20H232.9z"/>
	<path d="M273.6,55.4l6.3-17h7.6v28h-4.8V44.4h-0.2c-2.3,6.2-4.7,12.4-7,18.5h-4.4l-7-18.5h-0.2v22.1h-4.6v-28h7.8l6.4,17H273.6z"/>
	<path d="M304.5,42.7h-7.2v-4.2h19.3v4.2h-7.1v23.8h-5V42.7z"/>
	<path d="M331.3,38.5v23.8h11v4.2h-16v-28H331.3z"/>
</g>
</svg>
