<?xml version="1.0" encoding="utf-8"?>
<!-- Generator: Adobe Illustrator 19.0.0, SVG Export Plug-In . SVG Version: 6.00 Build 0)  -->
<!DOCTYPE svg PUBLIC "-//W3C//DTD SVG 1.1//EN" "http://www.w3.org/Graphics/SVG/1.1/DTD/svg11.dtd" [
	<!ENTITY ns_extend "http://ns.adobe.com/Extensibility/1.0/">
	<!ENTITY ns_ai "http://ns.adobe.com/AdobeIllustrator/10.0/">
	<!ENTITY ns_graphs "http://ns.adobe.com/Graphs/1.0/">
	<!ENTITY ns_vars "http://ns.adobe.com/Variables/1.0/">
	<!ENTITY ns_imrep "http://ns.adobe.com/ImageReplacement/1.0/">
	<!ENTITY ns_sfw "http://ns.adobe.com/SaveForWeb/1.0/">
	<!ENTITY ns_custom "http://ns.adobe.com/GenericCustomNamespace/1.0/">
	<!ENTITY ns_adobe_xpath "http://ns.adobe.com/XPath/1.0/">
]>
<svg version="1.1" id="Layer_1" xmlns:x="&ns_extend;" xmlns:i="&ns_ai;" xmlns:graph="&ns_graphs;"
	 xmlns="http://www.w3.org/2000/svg" xmlns:xlink="http://www.w3.org/1999/xlink" x="0px" y="0px" viewBox="0 0 500 500"
	 style="enable-background:new 0 0 500 500;" xml:space="preserve">
<style type="text/css">
	.st0{fill:#FEFEFE;}
	.st1{fill:#EBD7B5;}
	.st2{fill:#971B2E;}
	.st3{fill:#FEFEFD;}
	.st4{fill:#EEDFDB;}
	.st5{fill:#A54344;}
	.st6{fill:#AA514E;}
	.st7{fill:#CD9A91;}
	.st8{fill:#CE9C93;}
	.st9{fill:#DFBF89;}
	.st10{fill:#961B2E;}
	.st11{fill:#971C2E;}
	.st12{fill:#DFC089;}
	.st13{fill:#DFC08A;}
	.st14{fill:#E0C18C;}
	.st15{fill:#DFC18C;}
	.st16{fill:#E0C28D;}
	.st17{fill:#B46760;}
	.st18{fill:#A74948;}
	.st19{fill:#F9F2E8;}
	.st20{fill:#B66B64;}
	.st21{fill:#CB948B;}
	.st22{fill:#D3A59D;}
	.st23{fill:#D9B2AA;}
	.st24{fill:#F3E6D1;}
	.st25{fill:#F3E7D3;}
	.st26{fill:#FFFFFF;}
	.st27{fill:#FFFEFE;}
	.st28{fill:#FCF9F4;}
	.st29{fill:#FCF8F3;}
	.st30{fill:#EE2924;}
	.st31{fill:#DEBF89;}
</style>
<metadata>
	<sfw  xmlns="&ns_sfw;">
		<slices></slices>
		<sliceSourceBounds  height="418.8" width="403.8" bottomLeftOrigin="true" y="-462" x="390.3"></sliceSourceBounds>
	</sfw>
</metadata>
<g id="XMLID_2_">
	<path id="XMLID_273_" class="st0" d="M57.6,383.6c0-2.3,0-4.5,0-6.8c0.1-0.1,0.3-0.2,0.4-0.4c3.1-1,6.3-1.4,9.5-1.9
		c6.5-1,13-1.6,19.6-2c6.5-0.4,13.1-0.3,19.6-0.2c7.2,0.2,14.4,0.7,21.5,2.1c0.7,0.1,1.4,0.4,2.1,0.5c0.5,0.1,0.9,0.3,1.4,0.4
		c0.1,0,0.3,0,0.4,0.2c0-0.1,0-0.1-0.2-0.1c-0.3-0.1-0.7-0.1-1-0.3c-7.3-2.3-14.7-4.2-22.3-5.4c-4.6-0.7-9.1-1.3-13.8-1.7
		c-0.6-0.1-1.3,0.1-1.5-0.7c119.3,0,238.6,0,358,0c1.3,0,1.5,0.3,1.5,1.5c0,30.6,0,61.3,0,91.9c0,1.1-0.2,1.3-1.3,1.3
		c-130.8,0-261.7,0-392.5,0c-1.2,0-1.4-0.3-1.4-1.4c0-25.6,0-51.1,0-76.7c0.6-0.1,0.8,0.3,1.1,0.7c2.6,4.4,5.2,8.7,7.8,13.1
		c0.1,0.1,0.1,0.3,0.1,0.2c-0.4-1.4-0.7-3.1-1.1-4.7c-0.1-0.5-0.4-1.2,0.2-1.6c0.5-0.4,1.1,0,1.6,0.2c4.7,1.9,9.4,3.5,14.2,5.2
		c0.6,0.2,1.1,0.5,1.9,0.3c-0.8-1.4-1.9-2.5-2.9-3.6c-0.5-0.5-1.2-1-1.3-1.8c0-0.2,0.2-0.4,0.4-0.5c0.9-0.1,1.4,0.5,2.1,0.9
		c2.2,1.4,4.3,2.8,6.8,4.1c-0.2-2-0.7-3.6-1.3-5.2c-0.3-0.8-1.2-1.8-0.3-2.3c0.6-0.4,1.1,0.9,1.5,1.4c1.7,1.9,3.3,3.8,5.1,5.7
		c1-2,1.4-4,1.8-6c0-0.3,0-0.5,0.1-0.8c0.1-0.3,0.1-0.8,0.5-0.8c0.5,0,0.7,0.4,0.7,0.8c0.1,1.1,0.3,2.1,0.6,3.2
		c0.3,1.1,0.4,2.8,1.3,3.1c0.9,0.3,1.4-1.4,2.2-2c1.1-0.9,1.9-2.2,2.9-3.2c0.4-0.4,0.7-1.3,1.4-0.9c0.6,0.4,0.2,1.1,0,1.7
		c-0.5,1.7-1.1,3.4-1.4,5.4c2.6-1.3,4.7-2.8,6.8-4.4c0.5-0.4,1-0.8,1.5-1.1c0.2-0.1,0.5-0.2,0.7,0c0.2,0.2,0.1,0.5,0,0.7
		c-0.2,0.5-0.6,0.9-1,1.4c-1.1,1.3-2.2,2.7-3.4,4.4c3.5-1,6.8-2.1,10-3c0.7-0.2,1.4-0.7,2.2,0c0,0.7-0.5,1-1,1.2
		c-5.9,2.7-11.8,5.4-17.9,7.8c-4.4,1.7-8.4,0.9-12.5-0.6c-6.6-2.4-13-5.3-19.4-8.3c-0.5-0.2-0.9-0.4-1.4-0.6c-1,0-0.4,0.7-0.3,1
		c0.8,5.1,1.6,10.2,2.5,15.2c0.4,2.1,0.8,4.2,1.1,6.4c0.1,0.8,0.4,1.5,0.9,2.1c5.6,7.6,12.1,14.4,20,19.7c0.7,0.5,1.6,1.5,2.4,1.1
		c0.7-0.4,0.3-1.6,0.3-2.4c0-9,0-18,0-27c0-0.9-0.3-1.9,0.8-2.5c0.6-0.2,1.1-0.1,1.6,0.1c0.8,0.7,0.6,1.7,0.6,2.6c0,9,0,18,0,27
		c0,0.6-0.1,1.2,0.2,2c0.5-0.8,0.4-1.6,0.4-2.3c0-9,0-18,0-27c0-0.8-0.1-1.6,0.1-2.5c0.2-0.7,0.8-1,1.5-1.2
		c7.6-2.6,14.6-6.5,21.3-11c0.5-0.3,0.9-0.8,1.5-0.6c0.7,0.3,0.6,1,0.6,1.6c-0.2,3.9-0.7,7.7-1.5,11.6c-0.1,0.6-0.3,1.2-0.3,1.8
		c-0.3,0.4-0.2,1-0.4,1.4c0.3-0.4,0.1-1,0.4-1.4c0-0.6,0.1-1.1,0.2-1.6c0.7-3.3,1.2-6.6,2.5-9.7c2.7-4.6,5.5-9.1,8.2-13.6
		c0.7-1.1,0.5-1.3-0.8-1.3c-0.4,0-0.8,0-1.2,0c-23.4,0-46.8,0-70.1,0C59.5,384,58.5,384.2,57.6,383.6z"/>
	<path id="XMLID_272_" class="st1" d="M79.2,391.9c1.6,2,3.6,3.6,4.9,6c-1.1,0.2-2-0.2-2.8-0.5c-4.9-1.8-9.8-3.6-14.7-5.4
		c-0.3-0.1-0.6-0.4-0.8-0.2c-0.3,0.3-0.1,0.7,0,1c0.5,2.1,0.9,4.2,1.2,6.4c-1.5-2.5-3-5.1-4.6-7.6c-1.6-2.5-2.8-5.3-4.7-7.7
		c0-0.1,0-0.2,0-0.3c25.4,0,50.8,0,76.6,0c-1.2,1.9-2.1,3.7-3.2,5.4c-2.2,3.4-4,7-6.4,10.3c-0.5-0.6-0.2-1.2,0-1.7
		c0.3-1.5,0.9-2.9,1-4.6c-1.9,0.4-3.3,1.9-5.2,1.7c-2.9,0.4-5.5,1.6-8.3,2.3c-1.5,0.4-3,0.9-4.9,1.5c1.6-2.7,3.6-4.7,5.2-7
		c-3,2-5.9,4.2-9.4,5.9c0.1-2.8,1.2-5.1,1.6-7.7c-2.1,2.4-4.2,4.8-6.4,7.3c-1.3-2.7-2-5.3-2.4-8.1c-0.5,2.8-1,5.4-2.4,8.1
		c-2.4-2.6-4.7-5-6.8-7.7c0.8,2.6,2.1,5.1,2,8.2c-3.2-2-6.2-3.9-9.2-5.7c-0.4-0.1-0.9-0.3-1.1-0.7c-0.1-0.2,0.2-0.1,0-0.1
		c-0.1,0-0.1,0.1,0.1,0.1C78.7,391.3,79,391.6,79.2,391.9z"/>
	<path id="XMLID_271_" class="st2" d="M130.7,375.3c-12.9-2.3-26-2.9-39.1-2.5c-11.3,0.3-22.5,1.5-33.6,4c-0.5-2.1-0.1-4.2-0.2-6.3
		c0.5-0.8,1.4-0.8,2.1-1c5.3-1.2,10.6-2.1,16.1-2.1c0.3,0,0.5,0,0.7-0.2c0.3,0,0.6,0,0.9,0c0.2,0.2,0.4,0.2,0.6,0c0.5,0,1,0,1.5,0
		c0.9,0.2,1.9,0.2,2.8,0c1.9,0,3.7,0,5.6,0c0.7,0.3,1.4,0.3,2.2,0c0.5,0,1,0,1.5,0c0.2,0.2,0.4,0.2,0.6,0c0.3,0,0.6,0,0.9,0
		c1.3,0.6,2.8,0.4,4.1,0.6c11.5,1.2,22.8,3.2,33.8,7.2C131.3,375.6,131,375.4,130.7,375.3z"/>
	<path id="XMLID_270_" class="st3" d="M76.8,367.2c-1.1,0.7-2.4,0.4-3.5,0.5c-5.2,0.5-10.2,1.5-15.2,2.6c-0.1,0.1-0.3,0.1-0.4,0
		c0-1-0.4-2.5,0.1-3c0.5-0.5,1.9-0.1,3-0.1C66.1,367.2,71.4,367.2,76.8,367.2z"/>
	<path id="XMLID_269_" class="st4" d="M57.6,370.3c0.1,0,0.2,0,0.4,0c0,2.1,0,4.3,0,6.4c-0.1,0-0.3,0-0.4,0
		C57.6,374.6,57.6,372.5,57.6,370.3z"/>
	<path id="XMLID_268_" class="st5" d="M82.6,367.2c-0.9,0.5-1.9,0.5-2.8,0C80.8,367.2,81.7,367.2,82.6,367.2z"/>
	<path id="XMLID_267_" class="st6" d="M90.3,367.2c-0.7,0.5-1.4,0.4-2.2,0C88.9,367.2,89.6,367.2,90.3,367.2z"/>
	<path id="XMLID_266_" class="st7" d="M92.5,367.2c-0.2,0.4-0.4,0.4-0.6,0C92.1,367.2,92.3,367.2,92.5,367.2z"/>
	<path id="XMLID_265_" class="st8" d="M78.3,367.2c-0.2,0.4-0.4,0.4-0.6,0C77.9,367.2,78.1,367.2,78.3,367.2z"/>
	<path id="XMLID_264_" class="st9" d="M95.5,408.2c-0.5,0.5-0.3,1.2-0.3,1.8c0,9.8,0,19.5,0,29.3c0,0.5,0.3,1.3-0.3,1.5
		c-0.5,0.2-0.9-0.4-1.3-0.6c-8.9-5.5-16-13-22.1-21.4c-0.3-0.4-0.5-0.9-0.5-1.4c-1.3-7.9-2.6-15.9-3.9-23.8c0-0.1,0.1-0.2,0.1-0.3
		c0.4,0.2,0.8,0.4,1,0.8c2.1,0.9,3.8,2.5,5.7,3.7c6.4,4.1,13.2,7.4,20.4,9.6C94.7,407.5,95.4,407.4,95.5,408.2z"/>
	<path id="XMLID_263_" class="st10" d="M372.3,406.1c0-4.1,0-7.9,0-11.8c0-1.4-1.1-2.1-1.8-3.3c2.4,0,4.7,0,6.9,0
		c1.2,0,0.8,0.9,0.8,1.4c0,7.5,0,15,0,22.5c0,3.7,0,7.4,0,11.1c0,2.2,0,4.3,2.1,6.3c-2.9,0-5.3,0-7.7,0c-0.8,0-0.1-0.9-0.6-1.2
		c-2.4,1.4-5,2-7.8,1.7c-5.3-0.5-8.6-3.6-10.4-8.4c-1.5-4-1.5-8.2-0.1-12.2c2.5-7.1,10.9-10.2,17.5-6.7
		C371.5,405.7,371.8,405.8,372.3,406.1z"/>
	<path id="XMLID_262_" class="st10" d="M171.2,398.6c-3-1.8-5.8-3-9-3.2c-6.6-0.3-12.1,1.8-15.6,7.6c-3.4,5.6-3.7,11.5-0.3,17.2
		c3,5.1,7.9,7.3,13.7,7.5c5.1,0.2,9.8-1,13.8-4.2c0.3-0.2,0.6-0.4,0.9-0.6c0.4,0.5,0,0.8-0.1,1.1c-0.6,1.5-1.4,2.9-1.7,4.4
		c-0.6,2.6-2.3,3.6-4.6,3.9c-5.7,0.7-11.4,1.1-16.9-1c-8.9-3.4-14.4-11.9-13.7-21.1c0.7-9.7,7.6-17.5,17.2-19.4
		c5.2-1.1,10.3-1,15.3,0.9c0.8,0.3,1.2,0.7,1.1,1.7C171.2,395.1,171.2,396.7,171.2,398.6z"/>
	<path id="XMLID_261_" class="st10" d="M59.8,409.5c3.9,10.9,9.8,20.6,17.9,29c5.1,5.2,10.7,9.7,17.2,13.2c1,0.5,1.8,0.5,2.8,0
		c9.2-5,17.3-11.3,24.5-19c0.4-0.4,0.7-1,1.3-1.2c0.2,0.1,0.1,0.3,0.1,0.4c-6.2,10.1-13.6,19.2-23.1,26.4c-5.1,3.8-3.3,3.7-8.3,0.2
		c-15.8-10.9-26.2-25.8-31.7-44.1c-0.4-1.5-0.7-3-1-4.5C59.3,409.5,59.5,409.4,59.8,409.5z"/>
	<path id="XMLID_260_" class="st10" d="M195.9,432.6c-7.8,0-14.2-6.4-14.2-14.2c0-7.7,6.5-14.1,14.3-14.1c7.8,0,14.3,6.5,14.2,14.2
		C210.2,426.4,203.8,432.7,195.9,432.6z"/>
	<path id="XMLID_259_" class="st10" d="M316.5,418.6c0,7.8-6.4,14.1-14.3,14.1c-7.9,0-14.2-6.3-14.2-14.2c0-7.7,6.5-14.1,14.3-14.1
		C310.1,404.4,316.5,410.8,316.5,418.6z"/>
	<path id="XMLID_258_" class="st2" d="M440.3,432.4c-2.5,0-4.5-0.1-6.5,0c-1.1,0.1-0.9-0.7-1.1-1.3c-3.1,1.7-6.3,2.1-9.6,1.2
		c-6.5-1.8-7.6-7.6-5.6-12.1c1.2-2.8,3.8-3.7,6.6-4.2c2.2-0.4,4.5-0.7,6.7-1.2c2.1-0.5,2.7-2.5,1.3-4.1c-0.7-0.8-1.5-1.3-2.5-1.4
		c-3.6-0.6-7-0.4-9.8,2.2c-0.2,0.2-0.4,0.4-0.9,0.7c0-1.9,0-3.5,0-5.1c0-0.7,0.4-0.9,0.9-1.1c5-2.3,10-2.2,14.8,0.1
		c2.3,1.1,3.5,3.3,3.7,5.9c0.4,4.3,0.1,8.5,0.2,12.8C438.6,427.2,438.3,429.8,440.3,432.4z"/>
	<path id="XMLID_257_" class="st2" d="M246.9,433c-3.6,0-6.5,0-9.9,0c2.7-2,1.9-4.6,1.9-7.1c0-3.6,0-7.2,0-10.8c0-3.3-2.4-5.5-6-5.6
		c-3.5-0.1-6.1,2-6.2,5.2c-0.1,4.8,0,9.7,0,14.5c0,1.3,0.9,2.3,1.3,3.7c-2.8,0-5.6,0-8.7,0c2-2.1,1.6-4.5,1.6-6.9
		c0-4.2,0-8.4,0-12.6c0-2.5,0.1-5-1.3-7.5c2.2,0,4.2,0,6.2,0c0.2,0,0.6,0,0.6,0.1c0.4,1.8,1.2,0.5,1.7,0.2c6.6-3.4,14.8,0.1,16.4,7
		c0.2,0.8,0.2,1.7,0.2,2.6c0,3.4,0,6.9,0,10.3C244.6,428.4,244.3,430.9,246.9,433z"/>
	<path id="XMLID_256_" class="st2" d="M277.8,412.2c-2.8-2.4-5.7-3.4-9-3.1c-5,0.5-8.5,4.6-8.4,10c0.1,5,4.1,9.1,8.9,9.2
		c3.6,0.1,6.9-0.8,10.1-3.5c-0.4,2.3-0.7,4.1-1,6c-0.1,0.5-0.5,0.6-0.9,0.7c-5.3,1.5-10.6,1.9-15.7-0.8c-5.3-2.7-8-8.2-7.2-14.3
		c0.7-5.6,5.2-10.4,10.9-11.6c3.7-0.7,7.3-0.7,11,0.4c1,0.3,1.5,0.8,1.4,1.9C277.7,408.8,277.8,410.3,277.8,412.2z"/>
	<path id="XMLID_255_" class="st2" d="M343.2,409.6c-0.4,0.2-0.7,0-1-0.1c-3.5-0.9-6.2,0.6-6.6,4.3c-0.6,4.8-0.4,9.6-0.1,14.5
		c0.1,1.5,1,2.6,1.9,4c-3.3,0-6.3,0-9.7,0c2.3-2.3,1.7-5.1,1.7-7.8c0-4.3-0.1-8.5,0-12.8c0-2.4,0-4.6-2.5-6.6c2.9,0,5.3-0.4,7.6,0.2
		c1.2,0.3,1.8-0.1,2.6-0.5c1.6-0.9,3.3-1,5.1-0.8c0.7,0.1,1,0.3,1,1.1C343.2,406.6,343.2,408.1,343.2,409.6z"/>
	<path id="XMLID_254_" class="st2" d="M95.5,408.2c-9.9-2.9-19-7.5-27.3-13.9c-0.1-0.1-0.1-0.2-0.2-0.2c0.7-0.2,1.2,0.3,1.7,0.5
		c6.9,3.3,13.9,6.4,21.2,8.9c3.4,1.1,6.5,1.2,9.9-0.1c6.5-2.4,12.7-5.3,19-8.3c0.2-0.1,0.3-0.3,0.4-0.4c2-0.6,3.8-1.7,5.9-2.7
		c-0.6,2.7-1.1,5-1.6,7.3c-0.9,3.2-1.7,6.4-2.6,9.6c-0.3,0-0.4,0-0.3-0.3c0.4-4.4,1.2-8.7,1.4-13.4c-7.6,5.3-15.5,9.7-24.2,12.6
		c-0.5,0.6-1.1,0.6-1.8,0.5C96.6,408.2,96.1,408.2,95.5,408.2z"/>
	<path id="XMLID_253_" class="st11" d="M394.4,405.1c2.2,0,4.4,0,6.6,0c0.9,0,0.8,0.6,0.8,1.1c0,2.5,0,4.9,0,7.4c0,3.9,0,7.8,0,11.7
		c0,2.4-0.4,4.8,1.5,7c-3.1,0-5.8,0-8.9,0c2.4-2.5,1.5-5.4,1.5-8.1c0.1-4.9,0-9.9,0-14.8c0-1.6,0-3.1-1.7-4
		C394.3,405.4,394.4,405.2,394.4,405.1z"/>
	<path id="XMLID_252_" class="st12" d="M207.6,380c0-1.7,0-3,0-4.3c0-1,0.6-1,1.3-1c0.7,0,1.2,0.1,1.1,1c0,2.2,0,4.4,0,6.6
		c0,0.6,0.3,1.3-0.6,1.6c-0.8,0.2-1.4,0-1.9-0.7c-1.2-1.5-2.5-2.9-3.7-4.3c-0.2-0.2-0.3-0.6-0.8-0.5c0,1.4,0,2.7,0,4.1
		c0,0.8,0.1,1.5-1.1,1.5c-1.3,0-1.1-0.8-1.1-1.5c0-2.1,0-4.1,0-6.2c0-0.5-0.3-1.3,0.4-1.5c0.8-0.2,1.6-0.2,2.2,0.6
		c1.1,1.3,2.2,2.6,3.3,3.9C206.9,379.3,207.1,379.5,207.6,380z"/>
	<path id="XMLID_251_" class="st12" d="M293.6,455c0,1.9,0,3.3,0,4.8c0,0.8-0.3,1.1-1.1,1.1c-0.7,0-1.1-0.2-1.1-1c0-2.2,0-4.3,0-6.5
		c0-0.5-0.3-1.3,0.4-1.5c0.7-0.2,1.5-0.3,2.1,0.4c1.1,1.3,2.2,2.6,3.3,3.9c0.2,0.3,0.4,0.6,0.5,0.9c0.2-0.1,0.3-0.2,0.5-0.3
		c0-1.3,0-2.6,0-3.9c0-0.9,0.3-1.2,1.1-1.2c0.9,0,1.3,0.2,1.3,1.2c-0.1,2.1,0,4.2,0,6.3c0,0.5,0.3,1.3-0.4,1.5
		c-0.7,0.2-1.5,0.2-2.1-0.5c-1-1.3-2.2-2.5-3.2-3.7C294.6,456.1,294.3,455.7,293.6,455z"/>
	<path id="XMLID_250_" class="st9" d="M97.2,408.2c0.6-0.2,1.2-0.4,1.8-0.5c0,10.4,0,20.8,0,31.2c0,1.1-0.2,1.8-1.4,1.9
		c-0.3-0.5-0.2-1.1-0.2-1.6c0-9.7,0-19.4,0-29.2C97.4,409.4,97.6,408.8,97.2,408.2z"/>
	<path id="XMLID_249_" class="st13" d="M187.8,377.9c0,0.4,0,0.8,0,1.2c0,1.7-0.2,3.3-2,4.2c-1.9,0.9-3.8,0.8-5.6-0.2
		c-1.2-0.7-1.6-1.9-1.6-3.2c-0.1-1.4,0-2.9,0-4.3c0-1,0.5-1,1.3-1.1c0.9,0,1.2,0.3,1.2,1.1c-0.1,1.3,0,2.7,0,4
		c0,1.5,0.8,2.2,2.2,2.3c1.4,0,2.2-0.7,2.2-2.2c0-1.3,0.1-2.6,0-3.9c0-0.9,0.2-1.4,1.3-1.4c1,0,1.2,0.4,1.2,1.3
		C187.8,376.5,187.8,377.2,187.8,377.9z"/>
	<path id="XMLID_248_" class="st12" d="M278.2,379.1c0-0.3,0-0.5,0-0.8c0.1-1.2-0.6-3,0.3-3.5c1.3-0.7,3.1-0.4,4.7-0.1
		c2.1,0.4,2.7,2.7,1.2,4.2c-0.5,0.5-0.4,0.6-0.1,1.1c0.5,0.7,0.9,1.5,1.2,2.3c0.2,0.4,0.9,1.1,0,1.4c-0.6,0.2-1.6,0.4-2.1-0.5
		c-0.4-0.8-0.8-1.6-1.2-2.3c-0.3-0.6-0.9-1-1.5-0.8c-0.7,0.2-0.4,0.9-0.4,1.3c0,0.5,0,0.9,0,1.4c0.1,0.8-0.4,1-1.1,1
		c-0.7,0-1.1-0.2-1.1-1C278.2,381.6,278.2,380.3,278.2,379.1z"/>
	<path id="XMLID_247_" class="st13" d="M278.5,455.1c0,0.4,0,0.8,0,1.2c0,1.8-0.3,3.4-2.2,4.2c-2,0.9-4,0.7-5.8-0.6
		c-0.8-0.6-1.1-1.6-1.2-2.6c-0.1-1.5,0-3.1,0-4.6c0-0.9,0.6-0.9,1.2-0.9c0.7,0,1.2,0,1.2,0.9c0,1.3,0,2.7,0,4c0,1.5,0.8,2.4,2.2,2.4
		c1.3,0,2.2-0.9,2.2-2.4c0-1.3,0.1-2.7,0-4c0-1,0.6-1,1.3-1c0.7,0,1.2,0.2,1.1,1C278.5,453.5,278.5,454.3,278.5,455.1z"/>
	<path id="XMLID_246_" class="st9" d="M368.9,456.2c0-1.1,0-2.3,0-3.4c0-0.8,0.2-1.1,1-1.1c1.1,0.1,2.3,0,3.4,0c1.2,0,2,0.7,2.5,1.8
		c0.4,1,0.1,1.9-0.7,2.6c-0.4,0.3-0.5,0.5-0.1,0.9c0.5,0.7,0.9,1.4,1.2,2.1c0.2,0.4,0.8,1.2,0.2,1.4c-0.7,0.3-1.7,0.6-2.3-0.6
		c-0.3-0.7-0.6-1.4-1-2.1c-0.3-0.6-0.8-1-1.5-0.8c-0.6,0.2-0.4,0.9-0.4,1.3c0,0.5,0,0.9,0,1.4c0,0.8-0.5,0.9-1.1,0.9
		c-0.6,0-1.1,0-1.1-0.9C368.9,458.7,368.9,457.4,368.9,456.2z"/>
	<path id="XMLID_245_" class="st11" d="M401.7,397.5c0,3.4,0,3.4-3.4,3.4c-3.1,0-3.1,0-3.1-3.1c0-3.7,0-3.7,3.6-3.7
		C401.7,394.1,401.7,394.1,401.7,397.5z"/>
	<path id="XMLID_244_" class="st12" d="M258.8,379.2c0-1.2,0-2.4,0-3.5c0-0.8,0.2-1.1,1.1-1.1c1.5,0,3.1,0,4.6,0c0.5,0,1,0,1.1,0.7
		c0,0.9-0.5,0.9-1.1,0.9c-0.8,0-1.5,0-2.3,0c-0.8,0-1.1,0.3-1.1,1.1c0,0.7,0.4,1,1.1,1c0.4,0,0.7-0.1,1.1,0c0.7,0.2,2-0.6,2.1,0.8
		c0,1.6-1.4,0.5-2.1,0.8c-0.2,0.1-0.5,0-0.8,0c-0.8-0.1-1.3,0.1-1.3,1.1c0,1.1,0.7,1.1,1.4,1.1c0.7,0,1.4,0,2.2,0
		c0.7,0,1.1,0.1,1,0.9c0,0.7-0.3,0.9-1,0.9c-1.6,0-3.3,0-4.9,0c-0.7,0-0.9-0.3-0.9-0.9C258.8,381.7,258.8,380.5,258.8,379.2z"/>
	<path id="XMLID_243_" class="st9" d="M349.5,456.2c0-1.1,0-2.3,0-3.4c0-0.8,0.2-1.1,1-1.1c1.6,0,3.2,0,4.8,0c0.5,0,0.9,0.1,0.9,0.7
		c0,0.7-0.3,0.9-0.9,0.9c-0.9,0-1.7,0-2.6,0c-0.8,0-1,0.4-1,1.1c0,0.7,0.4,0.8,1,0.8c0.8,0,1.5,0,2.3,0c0.6,0,0.9,0.2,0.9,0.9
		c0,0.6-0.2,0.9-0.9,0.9c-0.7,0-1.3,0-2,0c-0.8,0-1.4-0.1-1.4,1.1c0,1.1,0.5,1.2,1.3,1.1c0.8,0,1.6,0,2.5,0c0.5,0,0.8,0.1,0.8,0.7
		c0,0.5-0.1,0.9-0.7,0.9c-1.7,0-3.5,0-5.2,0c-0.7,0-0.8-0.5-0.8-1C349.5,458.6,349.5,457.4,349.5,456.2z"/>
	<path id="XMLID_242_" class="st12" d="M353.1,378.9c0.2-1.2-0.7-3.1,0.3-4c0.9-0.9,2.8-0.2,4.2-0.3c0.4,0,0.7,0,1.1,0
		c0.6,0,1,0.1,0.9,0.9c0,0.6-0.4,0.7-0.9,0.7c-0.7,0-1.3,0-2,0c-0.7,0-1.4-0.2-1.5,1c0,1.1,0.6,1.1,1.4,1.1c0.7,0,1.3,0,2,0
		c0.5,0,0.9,0.2,0.9,0.8c0,0.6-0.3,0.8-0.9,0.8c-0.8,0-1.6,0-2.5,0c-0.8,0-0.9,0.4-0.9,1.1c0,0.6,0,1.1,0.8,1.1c0.9,0,1.7,0,2.6,0
		c0.6,0,0.9,0.2,0.9,0.9c0,0.7-0.3,0.9-1,0.9c-1.5,0-3.1,0-4.6,0c-0.8,0-1.1-0.4-1-1.1C353.1,381.5,353.1,380.3,353.1,378.9z"/>
	<path id="XMLID_241_" class="st13" d="M388.8,458.4c1.1,0.4,2,1,3.2,0.8c0.4-0.1,0.8-0.1,0.9-0.6c0.1-0.5-0.2-0.8-0.6-0.9
		c-0.9-0.4-1.8-0.7-2.7-1.2c-1.8-1.1-1.7-3.4,0.1-4.4c1.6-0.9,3.2-0.5,4.8,0.1c0.7,0.3,0.6,0.9,0.5,1.5c-0.2,0.6-0.7,0.2-1,0.1
		c-0.7-0.2-1.5-0.4-2.3-0.3c-0.4,0-0.7,0.2-0.8,0.6c-0.1,0.5,0.2,0.7,0.5,0.8c0.7,0.3,1.4,0.6,2.1,0.9c1.2,0.5,2,1.4,1.9,2.7
		c-0.1,1.4-1,2.2-2.4,2.5c-1,0.2-1.9,0.1-2.9-0.1C388.9,460.4,388.3,459.8,388.8,458.4z"/>
	<path id="XMLID_240_" class="st13" d="M298.1,381.3c0.9,0.3,1.8,0.9,2.8,0.8c0.5-0.1,1.2,0.1,1.4-0.7c0.1-0.7-0.5-0.8-0.9-1
		c-0.7-0.3-1.3-0.5-2-0.8c-1.1-0.6-1.8-1.4-1.6-2.7c0.2-1.3,1.1-2.1,2.4-2.2c1.1-0.1,2.2-0.1,3.3,0.2c0.8,0.3,1.1,0.8,0.8,1.5
		c-0.3,0.8-0.9,0.2-1.3,0.1c-0.7-0.2-1.4-0.4-2.1-0.3c-0.4,0.1-0.7,0.2-0.8,0.6c-0.1,0.4,0.2,0.7,0.6,0.8c0.8,0.4,1.7,0.7,2.5,1.1
		c1,0.5,1.5,1.4,1.4,2.5c-0.1,1.1-0.7,1.9-1.8,2.3c-1.2,0.4-2.4,0.4-3.6,0C298,383.2,297.6,382.5,298.1,381.3z"/>
	<path id="XMLID_239_" class="st12" d="M328,451.9c1.7-0.5,2.7,0,3.2,1.6c0.4,1.1,0.9,2,1.5,3.2c0.9-1,1.2-2.1,1.6-3.2
		c0.5-1.6,1.4-2.1,3.2-1.6c-1.3,2.9-2.6,5.8-4,8.6c-0.4,0.9-1.1,0.6-1.5-0.2C330.7,457.5,329.4,454.8,328,451.9z"/>
	<path id="XMLID_238_" class="st12" d="M237.3,374.8c1.7-0.5,2.7,0,3.2,1.5c0.4,1.1,0.9,2.1,1.4,3.2c1-1.1,1.3-2.5,1.9-3.7
		c0.2-0.4,0.3-1,0.7-1.1c0.6-0.2,1.4-0.3,1.9,0.1c0.4,0.3-0.2,0.9-0.4,1.4c-1,2.3-2,4.5-3.1,6.7c-0.2,0.4-0.3,1-1,1
		c-0.6,0-0.7-0.5-0.9-0.9C239.9,380.2,238.6,377.5,237.3,374.8z"/>
	<path id="XMLID_237_" class="st9" d="M447.5,454.5c1.1-1.4,1.8-3.6,4.3-2.5c-0.3,1-1,1.8-1.7,2.6c-1.2,1.4-1.8,2.9-1.6,4.7
		c0.1,0.7,0.2,1.5-1,1.6c-1.2,0-1.3-0.6-1.1-1.5c0.4-2.1-0.5-3.8-1.9-5.3c-0.6-0.6-1-1.4-1.5-2.1
		C445.6,450.8,446.3,453.1,447.5,454.5z"/>
	<path id="XMLID_236_" class="st9" d="M335.2,379.9c0-0.3,0-0.6,0-0.9c0-2.5,0-2.6-2.5-2.8c-0.5-0.1-0.9-0.1-0.9-0.8
		c0-0.7,0.4-0.8,1-0.8c2.3,0,4.6,0,6.9,0c0.6,0,1,0,1,0.8c0,0.7-0.4,0.8-1,0.8c-2.4,0.2-2.4,0.2-2.4,2.5c0,1.4,0,2.8,0,4.2
		c0,0.8-0.4,0.9-1,0.9c-0.7,0-1.2-0.1-1.2-1C335.3,381.9,335.2,380.9,335.2,379.9z"/>
	<path id="XMLID_235_" class="st9" d="M425.9,457.1c0-0.4,0-0.7,0-1.1c0-2.4,0-2.4-2.5-2.6c-0.5,0-0.9-0.1-0.9-0.8
		c0-0.7,0.3-0.9,1-0.9c2.4,0,4.7,0,7.1,0c0.5,0,0.9,0.1,0.9,0.8c0,0.7-0.4,0.8-1,0.9c-2.4,0.2-2.4,0.2-2.4,2.6c0,1.3,0,2.6,0,3.8
		c0,0.8-0.3,1-1,1c-0.7,0-1.2,0-1.2-0.9C426,458.9,425.9,458,425.9,457.1z"/>
	<path id="XMLID_234_" class="st14" d="M317.1,379.2c0-1.2,0-2.4,0-3.5c0-1,0.5-1,1.2-1.1c0.8,0,1.2,0.2,1.2,1.1
		c-0.1,2.3,0,4.6,0,6.9c0,0.8-0.3,1.2-1.2,1.2c-0.9,0-1.3-0.3-1.3-1.3C317.2,381.5,317.1,380.3,317.1,379.2z"/>
	<path id="XMLID_213_" class="st15" d="M410.2,456.4c0,1.1-0.1,2.1,0,3.2c0.1,1-0.4,1.2-1.3,1.2c-0.9,0-1.2-0.3-1.2-1.2
		c0-2.3,0-4.6,0-6.9c0-1,0.6-1,1.3-1c0.7,0,1.2,0.1,1.1,1C410.2,453.9,410.2,455.2,410.2,456.4z"/>
	<path id="XMLID_212_" class="st9" d="M223,379.1c0-1.1,0-2.1,0-3.2c0-0.8,0.1-1.3,1.1-1.3c0.9,0,1.1,0.4,1.1,1.2c0,2.3,0,4.6,0,6.9
		c0,0.9-0.3,1.1-1.2,1.2c-0.9,0-1.1-0.4-1.1-1.2C223,381.5,223,380.3,223,379.1z"/>
	<path id="XMLID_211_" class="st9" d="M313.7,456.2c0-1.1,0-2.2,0-3.2c0-0.8,0.1-1.3,1.2-1.3c0.9,0,1.1,0.4,1.1,1.2
		c0,2.2,0,4.4,0,6.6c0,0.8-0.1,1.2-1.1,1.2c-1,0-1.2-0.5-1.2-1.3C313.7,458.4,313.7,457.3,313.7,456.2z"/>
	<path id="XMLID_210_" class="st16" d="M358,371.8c-0.3,0.7-0.8,0.9-1.2,1.3c-0.3,0.3-0.6,0.7-1.2,0.6c-0.2-0.1-0.3-0.3-0.2-0.5
		c0.3-0.5,0.3-1.2,1.1-1.3C357,371.8,357.4,371.8,358,371.8z"/>
	<path id="XMLID_209_" class="st17" d="M59.8,409.5c-0.1,0.1-0.2,0.2-0.3,0.3c-0.5-0.6-0.3-1.3-0.3-1.9c0.1-0.1,0.2-0.1,0.3,0
		C59.5,408.5,59.7,409,59.8,409.5z"/>
	<path id="XMLID_208_" class="st18" d="M121.8,408.5c0.1,0.1,0.2,0.2,0.3,0.3c-0.1,0.5-0.2,1-0.3,1.5c-0.1,0.1-0.1,0.2-0.2,0
		C121.5,409.8,121.4,409.1,121.8,408.5z"/>
	<path id="XMLID_207_" class="st19" d="M78.3,390.7c0.4,0.3,0.8,0.6,1.2,0.9c-0.1,0.1-0.2,0.2-0.3,0.3c-0.4-0.2-0.7-0.5-0.9-0.9
		c-0.1-0.1-0.1-0.2-0.1-0.2C78.2,390.7,78.3,390.7,78.3,390.7z"/>
	<path id="XMLID_206_" class="st20" d="M130.7,375.3c0.2-0.1,0.4-0.2,0.6-0.3c0.3,0.1,0.6,0.2,0.9,0.3c0.1,0.3,0,0.4-0.3,0.3
		C131.5,375.6,131.1,375.6,130.7,375.3z"/>
	<path id="XMLID_205_" class="st21" d="M121.5,410.4c0.1,0,0.2-0.1,0.2,0c-0.1,0.4-0.2,0.9-0.4,1.6
		C121.2,411.2,121,410.8,121.5,410.4z"/>
	<path id="XMLID_204_" class="st22" d="M131.9,375.6c0.1-0.1,0.2-0.2,0.3-0.3c0.3,0.1,0.5,0.2,0.9,0.4
		C132.6,376,132.3,375.9,131.9,375.6z"/>
	<path id="XMLID_203_" class="st23" d="M59.4,408c-0.1,0-0.2,0-0.3,0c-0.4-0.2-0.4-0.6-0.2-1.1C59.2,407.3,59.3,407.7,59.4,408z"/>
	<path id="XMLID_202_" class="st24" d="M113.9,390c-0.1,0.6-0.5,0.8-0.8,1.1c-0.1,0-0.1,0-0.1,0C112.9,390.5,113.4,390.4,113.9,390z
		"/>
	<path id="XMLID_201_" class="st25" d="M78.3,390.7c0,0.1,0,0.2,0,0.3c-0.3-0.2-0.8-0.4-0.6-0.8C77.8,390,78.2,390.4,78.3,390.7z"/>
	<path id="XMLID_200_" class="st26" d="M372.4,418.6c0,1.1,0,2.2,0,3.2c-0.1,2.7-1.1,4.8-3.8,5.7c-2.8,0.9-5.4,0.4-7.5-1.8
		c-1.8-1.9-2.6-4.3-2.7-6.9c-0.1-2,0.3-3.9,1.2-5.7c1.6-3.4,5.4-5,8.9-3.7c2.2,0.8,3.5,2.4,3.8,4.8
		C372.5,415.7,372.4,417.2,372.4,418.6C372.4,418.6,372.4,418.6,372.4,418.6z"/>
	<path id="XMLID_199_" class="st26" d="M204.3,418.7c0,2.5-0.8,4.6-2.4,6.5c-3.6,4-9.5,3.6-12.5-0.9c-2.3-3.5-2.2-8.4,0.2-11.7
		c2.7-3.8,7.4-4.5,11.1-1.6C203.1,412.9,204.3,415.6,204.3,418.7z"/>
	<path id="XMLID_198_" class="st26" d="M310.6,418.6c-0.1,2.8-1,5.2-3,7.2c-3.5,3.3-8.7,2.9-11.6-1c-2.5-3.4-2.7-7.1-1-10.9
		c1.4-2.9,3.7-4.7,7-4.7c3.6,0,6.1,1.9,7.6,5.1C310.3,415.6,310.6,417.1,310.6,418.6z"/>
	<path id="XMLID_197_" class="st27" d="M433,421.8c0,4.9-3.8,7.8-8,6.2c-1.8-0.6-2.8-2-2.8-3.7c0-1.8,1-3.2,2.8-3.7
		c2.4-0.6,4.8-1,7.2-1.6c0.7-0.1,0.8,0.2,0.8,0.7C433,420.5,433,421.1,433,421.8z"/>
	<path id="XMLID_196_" class="st28" d="M281.1,376.2c1,0.1,1.7,0.2,1.7,1.2c0,0.9-0.7,1-1.4,1c-0.8,0-1.1-0.2-1.1-1
		C280.4,376.7,280.4,376.1,281.1,376.2z"/>
	<path id="XMLID_195_" class="st29" d="M372,453.3c0.7,0.1,1.5,0,1.5,1c0,0.9-0.7,1-1.4,1.1c-0.7,0.1-1.2-0.1-1.1-1
		C371.1,453.9,371,453.2,372,453.3z"/>
</g>
<g id="XMLID_20_">
	<path id="XMLID_137_" class="st26" d="M49.1,136c0-24.1,0-48.2,0-72.4c0-6.8,0-13.6,0-20.4c25.7,0,51.5,0,77.2,0s51.5,0,77.2,0
		c25.7,0,51.3,0,77,0c25.7,0,51.3,0,77,0c25.7,0,51.5,0,77.2,0c3.2,0,6.3,0,9.5,0c0,15.8,0,31.7,0,47.5c0,8,0,16,0,24
		c0,3.9,0,7.8,0,11.7c0,2,0,3.9,0,5.9c0,0.9,0,1.9,0,2.8c0,0.9,0.2,0.6-0.6,0.8c-0.5,0.2-1.4,0-2,0c-31.8,0-63.6,0-95.4,0
		c-31.7,0-63.4,0-95.2,0c-31.7,0-63.4,0-95.2,0s-63.4,0-95.2,0C56.9,136,53,136,49.1,136C49.1,105,180.8,136,49.1,136z M212.4,68.6
		c1.3,0.4,0.9,4.6,0.9,5.8c0.1,2.3,0.1,4.6,0.2,6.9c0.1,4.3,0.2,8.7,0.2,13c0.1,4.6,0.2,9.3,0.2,13.9c0,1.6,0.3,3.6-0.5,5.1
		c-0.9,1.6-3.2,2.2-4.8,2.8c-1.2,0.5-4.3,1-4.3,2.9c0,1.7,3.3,1.4,4.3,1.3c2.1-0.2,4.2-0.6,6.4-0.7c2.4-0.1,4.7-0.1,7.1-0.1
		c4.4,0.1,8.8,0.5,13.3,0.7c1.1,0,4-0.2,3.8-2c-0.2-1.6-3.7-2.2-4.9-2.6c-2.7-0.8-5.4-1.8-6.6-4.5c-0.5-1.2-0.7-2.4-0.8-3.7
		c-0.2-2.4-0.2-4.8-0.3-7.2c-0.2-8.9-0.1-17.8-0.3-26.7c-0.1-3.6-1.2-8.2,0.6-11.5c0.7-1.3,1.8-2.3,3.1-2.9c1.7-0.8,3.3-0.7,5-1
		c1.2-0.2,3.1-0.8,3.5-2c0.6-1.9-1.7-2.3-3-2.3c-4.3,0-8.6,0.9-12.9,0.7c-2.1-0.1-4.4-0.4-6.5-0.1c-2.1,0.3-3.3,1.5-4.4,3.3
		c-2.4,4-3.7,8.8-5.4,13.2c-1.8,4.6-3.6,9.3-5.4,13.9c-0.9,2.4-1.9,4.8-2.8,7.2c-0.5,1.2-0.9,2.4-1.4,3.6c-0.4,1.1-0.9,1.6-1.6,2.5
		c-1.9-2.1-2.8-4.9-4-7.5c-1.2-2.7-2.5-5.4-3.7-8.2c-2.6-5.6-5.2-11.1-7.8-16.7c-1.3-2.7-2.4-5.6-3.9-8.3c-1.3-2.5-3.5-2.6-6.1-2.5
		c-3,0.2-5.9,0.3-8.8,0.3c-1.4,0-2.8,0.1-4.1-0.1c-1.3-0.2-2.7-0.5-3.9,0.2c-3.1,1.9,0.9,3.1,2.6,3.7c2.5,0.9,5.4,1.3,6.4,4.1
		c0.9,2.4,0.3,5.5,0.1,8c-0.2,3-0.4,5.9-0.6,8.9c-0.4,6.1-0.7,12.1-1,18.2c-0.2,3-0.3,6-0.4,9c-0.1,2.4,0.1,5.3-1.7,7.3
		c-1.5,1.6-4.6,2.3-6.7,2.9c-0.9,0.3-2.5,0.5-2.9,1.5c-0.4,1.1,1,1.8,1.9,1.9c1.3,0.2,2.8-0.1,4.1-0.2c1.5-0.1,3-0.3,4.6-0.4
		c3-0.2,6-0.4,9-0.3c1.5,0.1,2.9,0.1,4.4,0.2c1.3,0.1,2.9,0.5,4.2,0.1c0.8-0.2,1.6-0.7,1.4-1.6c-0.4-1.1-1.5-1.5-2.6-1.9
		c-3.7-1.2-8.8-2-9.1-6.7c-0.4-6-0.2-12.1-0.2-18.1c-0.1-6.1-0.1-12.3,0-18.4c0-1.3-0.3-3.1,0.2-4.3c0.4-0.9,0.7-0.3,1,0.4
		c0.3,0.6,0.7,1.2,1,1.9c1.4,2.8,2.6,5.7,3.9,8.5c2.5,5.5,5.1,11.1,7.6,16.6c2.5,5.5,5,11,7.6,16.4c0.5,1.1,2.2,5.7,4,4.3
		c0.9-0.7,1.2-2,1.6-2.9c0.6-1.5,1.3-3.1,1.9-4.6c4.6-11.2,9.1-22.5,13.6-33.8C210.1,73.5,211.1,71,212.4,68.6
		C212.5,68.6,212,69.3,212.4,68.6z M356.9,88.1c-1.5-3.2-6-2-8.7-1.9c-3.7,0.3-7.5,0.4-11.2,0.5c-2,0.1-4,0.2-6,0.2
		c-1.9,0-3.7-0.3-5.6-0.2c-1.3,0.1-3.3,0.1-4,1.4c-0.6,1.2,0.4,2.5,1.6,2.9c3,0.9,6.9-0.4,9.4,2c2.2,2.1,1.3,5.5,1.3,8.2
		c-0.1,3.1,0.4,7.1-1.1,9.9c-1.4,2.8-4.9,4.2-7.8,4.7c-6.8,1.1-14-1.8-19.3-5.9c-2.6-2-4.9-4.6-6.7-7.4c-0.9-1.4-1.6-2.9-2.2-4.4
		c-0.7-1.8-1.4-3.1-1.7-5c-0.8-7.1-0.9-14.7,2-21.4c2.6-6.1,6.9-11.1,12.9-14c3.2-1.6,6.6-2.2,10.1-2.2c3.6,0,7.2-0.2,10.5,1.6
		c2.5,1.4,4.7,3.3,6.2,5.7c0.9,1.4,3.2,7.5,5.6,5.4c1-0.9,1.1-2.9,1-4.2c-0.1-1.8-0.2-3.7-0.6-5.4c-0.6-2.6-2.2-4.7-4.8-5.5
		c-3.6-1.1-7.6-1.6-11.3-1.9c-3.9-0.3-7.8-0.2-11.6,0.3c-7,1-14.2,2.8-20,6.8c-1.5,1-2.8,2.1-4.2,3.3c-1.2,1.1-2.8,2.3-3.7,3.7
		c-0.9,1.3-1.6,2.8-2.3,4.2c-0.9,1.6-1.6,3.2-2.1,4.9c-1.1,3.6-2.2,7.4-2.5,11.2c-0.3,3.5,0.2,7.1,1.2,10.5
		c1.7,6.1,5.3,11.6,10.2,15.7c5.1,4.3,11.6,6.8,18.1,7.9c3.7,0.6,7.4,0.8,11.2,0.7c3.6-0.1,7.4-0.2,11-0.7c3.3-0.5,6.6-1.6,9.5-3.2
		c2.6-1.4,5-3.1,5.3-6.2c0.2-1.7,0-3.5,0-5.3c0-2.1,0-4.3,0-6.4c0-3.2-0.4-6.7,3.4-7.5C352.4,90.5,355.4,90.8,356.9,88.1
		C356.3,86.8,355.6,90.3,356.9,88.1z M83.7,43.5c-2.6,0-5.2,0-7.8,0c-1.4,0-2.8,0.1-4.2,0.3c-2.3,0.3-4.5,0.8-6.8,1.2
		c-5,0.9-9.9,2.1-14.4,4.6c-0.3,0.1-0.6,0.4-0.6,0.7c-0.2,1-0.3,2-0.3,3c-0.1,6.8-0.2,13.7-0.2,20.5c0,2,0.1,4.1,0.6,6.1
		c0.8,3.8,1.8,7.5,2.9,11.2c1.9,5.9,4.3,11.6,7.4,17c3.7,6.5,8.2,12.3,13.8,17.3c3.8,3.4,7.6,6.8,12,9.4c0.7,0.4,1.1,0.4,1.7-0.1
		c2.6-2.1,5.3-4.3,7.9-6.4c4.2-3.3,7.6-7.3,10.8-11.5c2.2-2.9,4.2-5.9,5.9-9c2.2-4,4.2-8.2,5.8-12.5c1.3-3.3,2.1-6.8,2.8-10.2
		c1.1-5,2-10,1.9-15.1c-0.1-5.3-0.2-10.6-0.3-15.8c0-1.3-0.1-2.5-0.3-3.8c0-0.2-0.3-0.5-0.5-0.6c-1.2-0.6-2.5-1.3-3.8-1.8
		c-5.7-2.2-11.7-3-17.7-3.9c-3.4-0.5-6.9-0.5-10.4-0.6C88,43.4,85.8,43.5,83.7,43.5z M416,119.2c1.9,2.1,6,0.8,8.3,0.6
		c3.4-0.3,6.8-0.3,10.2-0.1c1.6,0.1,3.2,0.2,4.8,0.3c1.1,0.1,3,0.4,3.8-0.6c1.6-2-3.9-3.6-5-4.3c-1.9-1.1-3.1-2.8-3.4-5
		c-0.4-3.3-0.1-6.8-0.2-10.1c-0.1-7.1-0.1-14.2-0.2-21.3c0-6.9,0-13.8,0-20.7c0-1.9,1.3-6.9-2.1-6.6c-1.4,0.1-3,1-4.3,1.5
		c-1.7,0.6-3.4,1.3-5.1,1.9c-1.1,0.4-6.4,2.1-3.5,3.9c0.9,0.6,2,0.7,2.8,1.4c0.8,0.8,1.3,1.8,1.5,2.9c0.6,3.1,0.3,6.5,0.4,9.6
		c0.1,3.4,0.1,6.7,0.1,10.1c0.1,7.7,0.2,15.4,0.2,23.1c0,1.9,0.1,3.9-0.1,5.9c-0.1,1.2-0.6,2.4-1.6,3.1
		C421,116.3,416.5,116.6,416,119.2C416.7,119.9,416.4,117.4,416,119.2z M412.9,118.5c-1-2.1-2.7-2.4-4.6-3.3c-2-0.9-3.6-2.5-4.2-4.7
		c-0.3-1.3-0.2-2.7-0.2-4c0-1.8,0-3.7-0.1-5.5c0-3.5-0.1-7-0.1-10.5c-0.1-7-0.1-13.9-0.1-20.9c0-3.4,0-6.8,0-10.3c0-1.8,0-3.5,0-5.3
		c0-1.1-0.1-2.3-1.3-2.7c-1.1-0.3-2.4,0.5-3.4,0.9c-1.6,0.6-3.2,1.2-4.8,1.8c-1.5,0.6-3,1.1-4.5,1.7c-0.9,0.3-2.1,0.9-1.6,2
		c0.5,1.1,2.1,1.4,3,2c0.9,0.7,1.5,1.6,1.8,2.7c0.8,2.9,0.5,6.5,0.5,9.5c0.1,7,0.2,14,0.3,21.1c0,3.5,0.1,7,0.1,10.5
		c0,1.7,0,3.3,0,5c0,1.7,0.2,3.4-0.7,5c-1.4,2.4-4.4,2.3-6.5,3.8c-0.4,0.3-1,0.8-1,1.3c-0.1,0.8,0.9,1.1,1.6,1.3
		c1.6,0.4,3.4,0,4.9-0.2c3.7-0.5,7.4-0.5,11.1-0.4c2,0,4,0.4,6,0.5C410.4,119.8,412,119.8,412.9,118.5
		C412.1,116.9,411.9,119.9,412.9,118.5z M261.7,73.7c-6.6,0.5-13.6,2.4-18.5,7.2c-2.4,2.3-4.4,5.3-5.5,8.4c-1.2,3.2-2.5,6.4-2.3,9.9
		c0.4,6.5,4.1,12.7,9.4,16.4c5.6,3.8,12.3,4.5,18.8,2.8c1.6-0.4,2.9-1.2,4.3-1.9c1.7-0.8,3.5-1.6,5-2.7c0.9-0.6,1.7-2.2,0.4-2.9
		c-0.9-0.5-2.5,0.2-3.3,0.5c-3.3,1.1-7,1.9-10.5,1.4c-3-0.4-5.9-2.1-7.9-4.2c-4.5-4.7-5.8-11.9-4.5-18.1c1.1-5.4,4.1-11,9.8-12.5
		c3.4-0.9,5.9,0.7,8,3.2c1.9,2.3,5.5,5.7,8.5,3c2.6-2.3,1.3-6.1-1.2-7.8C269,74.4,265.3,73.8,261.7,73.7
		C260.4,73.8,265.6,73.8,261.7,73.7z M375.8,96.7c0-5.2-0.3-10.5,0.2-15.7c0.1-1.3,1.2-5.1-0.7-5.5c-2.1-0.4-3.8,2-5.4,3
		c-2,1.2-4.2,2-6.4,2.9c-1.1,0.5-5.3,2.2-2.5,3.5c1.5,0.8,3.1,0.8,3.9,2.5c0.7,1.4,0.6,3.3,0.6,4.8c0.1,5.5,0.1,10.9,0,16.4
		c0,1.9,0.4,4.3-0.9,5.9c-1.2,1.5-3.3,1.7-4.9,2.6c-0.7,0.4-1.6,0.8-1.7,1.8c-0.1,1,0.5,1.3,1.5,1.4c2.4,0.3,5.1-0.5,7.5-0.8
		c2.6-0.3,5.1-0.4,7.7-0.1c1.2,0.1,2.5,0.3,3.7,0.4c1.2,0.1,2.5,0.5,3.7,0.1c2.5-0.9,0.9-3.2-0.8-3.8c-2-0.7-3.6-1.4-4.6-3.4
		c-1.1-2.1-0.8-4.5-0.8-6.8C375.8,102.9,375.8,99.8,375.8,96.7z M376.9,57.8c0-3-3.2-6-6.1-5.8c-2.9,0.2-6,3.6-5.3,6.6
		c0.5,2.4,3.4,5.1,5.9,5C373.9,63.4,376.8,60.4,376.9,57.8C376.9,55,376.8,60.3,376.9,57.8z"/>
	<path id="XMLID_136_" class="st30" d="M212.4,68.6c-2.6,5.2-4.6,10.7-6.7,16.1c-2.3,5.6-4.5,11.3-6.8,16.9
		c-1.2,2.8-2.3,5.7-3.5,8.5c-0.6,1.4-1.1,2.7-1.7,4.1c-0.4,1-0.8,2.5-1.8,3.2c-1.9,1.5-3.6-3.4-4.2-4.5c-1.3-2.7-2.6-5.4-3.8-8.2
		c-5.1-11-9.8-22.3-15.2-33.1c-0.3-0.6-0.7-1.2-1-1.9c-0.4-0.7-0.6-1.4-1-0.4c-0.6,1.2-0.2,3.2-0.2,4.6c0,3.1,0,6.1,0,9.2
		c0,6.1,0.1,12.3,0.2,18.4c0,2.9-0.1,5.9,0.1,8.8c0.1,1.7,0.8,2.9,2.2,3.8c2.1,1.4,4.7,1.9,7.1,2.7c1,0.3,1.7,0.7,2.2,1.6
		c0.5,1-0.5,1.6-1.4,1.8c-1.3,0.2-2.8-0.1-4.1-0.2c-1.6-0.1-3.1-0.2-4.7-0.2c-3-0.1-6,0.1-9,0.3c-1.4,0.1-2.9,0.2-4.3,0.4
		c-1.3,0.1-3,0.5-4.3,0.2c-0.8-0.2-2-0.8-1.8-1.7c0.2-1.2,2.2-1.5,3.1-1.7c2-0.6,5.2-1.3,6.6-3c1.7-2.1,1.5-4.9,1.6-7.4
		c0.2-6,0.6-12.1,0.9-18.1c0.3-6,0.7-12,1.1-18.1c0.2-2.4,0.7-5.3-0.1-7.7c-1-2.8-4.1-3.3-6.6-4.2c-1.7-0.6-5.4-1.7-2.4-3.6
		c1.2-0.7,2.4-0.5,3.7-0.3c1.5,0.2,3.1,0.2,4.6,0.2c2.9,0,5.7-0.1,8.6-0.3c2.7-0.2,4.8,0.1,6.2,2.6c2.8,5.4,5.2,11.1,7.8,16.7
		c2.6,5.5,5.1,11,7.6,16.5c1.1,2.5,2,5.2,3.9,7.2c0.6-0.7,1-1.1,1.4-1.9c0.4-1,0.8-2.1,1.2-3.1c0.9-2.2,1.7-4.5,2.6-6.7
		c1.6-4.1,3.2-8.2,4.8-12.3c1.7-4.3,3.3-8.6,5-12.8c1.3-3.3,2.9-6.5,6.8-6.8c4-0.3,8,0.3,12.1,0c1.6-0.1,10.7-1.9,9.6,1.8
		c-0.4,1.2-2.3,1.9-3.5,2c-1.8,0.3-3.4,0.2-5,1c-3.3,1.6-4.1,4.8-4,8.2c0,2.1,0.3,4.2,0.3,6.3c0.1,2.3,0,4.6,0,7
		c0,4.4,0.1,8.7,0.2,13.1c0.1,4.5,0.1,9.1,0.4,13.6c0.2,2.7,0.8,5.3,3.2,6.8c1.3,0.8,2.7,1.2,4.2,1.7c1.3,0.4,4.7,0.9,4.9,2.6
		c0.2,1.8-2.7,2-3.8,2c-2.4-0.1-4.8-0.3-7.2-0.5c-4.4-0.3-8.8-0.4-13.1-0.2c-2.1,0.1-4.2,0.5-6.4,0.7c-1,0.1-4.3,0.4-4.3-1.3
		c0-2,3.9-2.7,5.2-3.2c1.8-0.7,4.1-1.3,4.3-3.5c0.2-2.4,0.1-4.7,0.1-6.8c0-2.6-0.1-5.2-0.1-7.8c-0.1-4.9-0.2-9.8-0.3-14.7
		c-0.1-2.5-0.1-5-0.2-7.5C213.3,74.1,213.8,68.9,212.4,68.6C212,69.3,212.5,68.6,212.4,68.6z"/>
	<path id="XMLID_135_" class="st30" d="M356.9,88.1c-1.6,2.8-4.8,2.3-7.5,3.1c-3.6,1-3,4.7-3.1,7.7c0,2,0,4.1,0,6.1
		c0,1.9,0.3,3.9,0,5.7c-0.4,3-2.9,4.6-5.4,5.9c-6.5,3.4-13.7,3.6-20.9,3.8c-7.2,0.2-14.4-0.8-21-3.8c-12-5.5-20.3-18.1-19.1-31.5
		c0.3-3.6,1.4-7.2,2.4-10.7c0.5-1.7,1.3-3.3,2.1-4.9c0.8-1.4,1.5-3.2,2.6-4.5c2-2.5,5-4.8,7.7-6.6c3-2.1,6.3-3.5,9.8-4.6
		c7.2-2.2,14.8-3.2,22.4-2.5c3.6,0.3,7.5,0.8,11,1.9c2.7,0.8,4.1,3.2,4.7,5.8c0.4,1.7,0.5,3.4,0.6,5.1c0,1.3,0,3.6-1.3,4.4
		c-2.4,1.5-4.5-4.3-5.4-5.8c-1.6-2.5-3.8-4.4-6.4-5.7c-3.2-1.6-6.9-1.4-10.4-1.4c-6.8,0.1-13.4,2.9-17.8,8.1
		c-2.1,2.5-3.9,5.5-5.2,8.5c-1.3,3.3-1.6,6.5-2.1,10c-0.5,3.8-0.1,7.7,0.4,11.5c0.2,1.7,1,3,1.6,4.5c0.7,1.6,1.4,3.1,2.3,4.6
		c3.7,5.6,9.2,9.7,15.5,11.9c3.4,1.2,7.3,1.7,10.8,1c2.9-0.5,6.3-2.1,7.5-5c1.3-3,0.8-6.9,0.9-10.1c0.1-2.7,0.9-5.9-1.5-7.9
		c-1-0.8-2.2-1.1-3.5-1.2c-1.8-0.2-4.2,0-5.8-0.6c-1.1-0.4-2-1.7-1.4-2.8c0.8-1.4,3.1-1.4,4.5-1.4c1.7,0,3.4,0.2,5.1,0.2
		c2.1,0,4.2-0.1,6.2-0.2c3.8-0.1,7.7-0.3,11.5-0.6C351.3,86,355.4,85,356.9,88.1C355.6,90.3,356.3,86.8,356.9,88.1z"/>
	<path id="XMLID_129_" class="st30" d="M83.7,43.5c2.1,0,4.2-0.1,6.4,0c3.5,0.1,7,0.1,10.4,0.6c6,0.9,12,1.7,17.7,3.9
		c1.3,0.5,2.5,1.1,3.8,1.8c0.2,0.1,0.5,0.4,0.5,0.6c0.1,1.3,0.3,2.5,0.3,3.8c0.1,5.3,0.2,10.6,0.3,15.8c0.1,5.1-0.9,10.1-1.9,15.1
		c-0.7,3.5-1.5,7-2.8,10.2c-1.7,4.3-3.7,8.4-5.8,12.5c-1.7,3.2-3.7,6.2-5.9,9c-3.2,4.2-6.6,8.3-10.8,11.5c-2.7,2.1-5.3,4.2-7.9,6.4
		c-0.6,0.5-1,0.5-1.7,0.1c-4.4-2.6-8.2-6-12-9.4c-5.6-5-10.1-10.8-13.8-17.3c-3.1-5.4-5.5-11.1-7.4-17c-1.1-3.7-2.1-7.4-2.9-11.2
		c-0.4-2-0.6-4.1-0.6-6.1c0-6.8,0.1-13.7,0.2-20.5c0-1,0.1-2,0.3-3c0-0.3,0.3-0.6,0.6-0.7c4.5-2.5,9.4-3.7,14.4-4.6
		c2.3-0.4,4.5-0.9,6.8-1.2c1.4-0.2,2.8-0.3,4.2-0.3C78.5,43.5,81.1,43.5,83.7,43.5z M95.1,64.1c-1-0.2-1.9-0.5-2.8-0.7
		c0.4,0,1.1-0.1,1.7-0.1c0-5,0-10,0-15.1c-1.5,0.8-2.8,0.4-4.1-0.1c-0.7-0.2-1.4-0.4-2.1-0.5c-1-0.1-1.5,0.3-1.5,1.4
		c0.1,2.4,0,4.9,0,7.3c0,2.2,0,4.4,0,6.4c1.5,0.1,2.8,0.1,4,0.2c-1.5,0.2-3,0.4-4.5,0.5c-1.4-0.2-2.9-0.4-4.3-0.5c1.4,0,2.9,0,4.5,0
		c0-0.5,0-1,0-1.4c0-4,0-8,0-12c0-1.8-0.1-1.9-2-1.9c-0.4,0-0.8,0.1-1.1,0.2c-1.7,0.3-3.3,1.5-5.1,0.4c0,5.1,0,10,0,15.1
		c0.8,0,1.5,0,1.8,0c-0.8,0.3-2,0.6-3.2,1c0.9-0.7,1.1-1.6,1.1-2.8c-0.1-4,0-7.9,0-11.9c0-0.4-0.1-0.7-0.1-1.1
		C76.2,49.1,76,50,76,51.2c0.1,4.1,0,8.1,0,12.2c0,0.5,0.2,0.9,0.2,1.4c0.4,0.1,0.8,0.3,1.2,0.3c1.5,0,3.1,0,4.6,0
		c1.3,0,2.6,0.3,3.5-1.1c-0.1,0.3-0.2,0.6-0.3,1.1c3.5,0,6.8,0,10.1,0c0.1,0,0.3-0.2,0.4-0.3c0.1-0.5,0.2-0.9,0.2-1.4
		c0-4.1,0-8.2,0-12.3c0-1.3-0.6-2.1-1.7-2.8c0,4.7,0,9.3,0,13.8C94.3,62.9,94.5,63.5,95.1,64.1z M97.5,80.8
		c-1.4-1.5-2.8-2.9-4.1-4.4c-2.2-2.5-4.4-5-6.7-7.4c-0.2-0.2-1.1-0.2-1.3,0c-1.8,1.8-3.4,3.7-5.2,5.6c-1.8,2-3.7,3.9-5.7,5.9
		c-4.1-4.1-8.1-8.1-12.2-12.2c-1.2,1.4-2.5,2.7-3.7,4.1c-2.5,2.7-4.9,5.4-7.4,8.2c-0.2,0.2-0.3,0.7-0.2,1c1.1,4.2,2,8.5,3.6,12.6
		c1.9,4.7,4.2,9.2,6.6,13.7c3.6,6.7,8.3,12.6,14,17.6c3.4,3,7,5.7,10.6,8.5c0.3,0.2,1,0.3,1.2,0.1c3.1-2.3,6.4-4.6,9.3-7.2
		c2.7-2.4,4.9-5.4,7.4-8c4-4.3,7.1-9.3,9.7-14.5c3.3-6.6,5.8-13.5,7.1-20.8c0.3-1.4,0.8-2.9-0.9-4.2c-1.2-0.9-2-2.3-3.1-3.4
		c-2.3-2.6-4.6-5.1-7-7.8C105.5,72.5,101.5,76.6,97.5,80.8z M62.1,52c-0.2,0-0.4,0-0.5-0.1c-0.3,0.9-0.6,1.8-0.9,2.9
		c-0.1,0-0.4,0.1-0.7,0.2c-0.1,0.1-0.1,0.2-0.2,0.3c0.2,0.1,0.5,0.2,0.6,0.4c0.9,1.3,0.7,1.7-0.8,2.2c-0.6,0.2-1.1,0.6-1.7,0.8
		c-0.5,0.2-1.3,0.3-1.7,0.1c-0.5-0.4-0.8-1.1-0.2-1.8c0.3-0.4,0.6-0.9,0.9-1.3c-0.1-0.1-0.1-0.2-0.2-0.3c-0.5,0.2-1.1,0.4-1.8,0.6
		c-0.4-0.1-1-0.3-1.9-0.6c1,2.2,1.9,4.2,2.6,5.9c1.4-0.2,2.7-0.3,3.9-0.5c0,0,0,0.1,0,0.1c-1.2,0.3-2.4,0.6-3.6,0.9
		c0.3,0.7,0.5,1.3,0.8,1.7c0.5,0.6,1,1.4,1.6,1.5c1.8,0.3,3.6,0.5,5.4,0.3c1.2-0.1,2.7,0.4,3.6-1.3c0.8-1.6,0.9-2-0.8-2.9
		c0.3,0,0.6-0.1,0.8,0c1,0.6,1.4,0,1.7-0.9c0.4-1,0.9-1.9,1.3-2.8c0.2-0.6,0.2-1.2,0.3-1.8c-0.5,0.2-1,0.4-1.5,0.6
		c-0.4-0.2-1-0.4-1.6-0.6c1.5,2.4,1.5,2.6-0.5,3.3c-0.9-0.4-1.6-0.9-2.3-1.1c-1.6-0.5-1.8-1-0.8-2.3c0.1-0.1,0.4-0.1,0.6-0.2
		c-0.2,0-0.4-0.1-0.6-0.1C63.3,54.1,62.7,53,62.1,52z M116.1,55.5c1.2,2.6,1.2,2.6-0.6,3.4c-1-0.4-1.9-0.8-2.7-1.2
		c-0.9-0.3-1.2-1.2-0.6-1.9c0.2-0.3,0.5-0.5,1-0.9c-0.6-0.1-1-0.2-1.2-0.2c-0.4-1.1-0.7-2-1-2.9c-0.1,0-0.3,0-0.4,0
		c-0.6,1.1-1.3,2.3-1.9,3.3c0.2,0.5,0.7,1.1,0.7,1.7c0.1,1-0.9,0.8-1.5,1.1c-0.4,0.2-0.9,0.5-1.4,0.6c-0.6,0.1-1.3,0.3-1.7,0
		c-0.4-0.3-0.8-1-0.2-1.7c0.3-0.4,0.5-0.9,0.7-1.4c-0.1-0.1-0.2-0.2-0.3-0.3c-0.5,0.3-1.1,0.5-1.4,0.7c-0.7-0.2-1.2-0.4-1.7-0.6
		c-0.1,0.1-0.1,0.2-0.2,0.3c0.9,1.9,1.7,3.7,2.5,5.4c1.4-0.2,2.7-0.3,4-0.4c0,0,0,0.1,0,0.1c-1.2,0.3-2.3,0.5-3.5,0.8
		c0.3,0.9,0.5,1.5,0.9,2.1c0.3,0.5,0.8,1.2,1.2,1.2c2.7,0.1,5.5,0.1,8.2,0c0.3,0,0.6-0.4,0.8-0.7c0.4-0.7,0.7-1.5,1-2.4
		c-0.6-0.3-1.1-0.5-1.4-0.6c0.5-0.1,1.5-0.1,1.7-0.5c0.9-1.6,1.6-3.3,2.4-5c-0.1-0.1-0.2-0.2-0.3-0.4c-0.5,0.3-1,0.6-1.5,0.8
		C117.3,56,116.7,55.7,116.1,55.5z"/>
	<path id="XMLID_128_" class="st30" d="M416,119.2c0.4-2.3,4.2-2.9,5.9-3.7c2.8-1.3,2.4-4.1,2.5-6.7c0-6.9-0.1-13.8-0.2-20.6
		c-0.1-6.8-0.1-13.6-0.3-20.4c-0.1-2.4,0.2-5.6-1.7-7.4c-1-0.9-5.5-2-2.8-4c0.9-0.7,2.4-1,3.5-1.4c1.6-0.6,3.3-1.2,4.9-1.8
		c1.7-0.7,5.9-3.2,6.8-0.2c0.4,1.5-0.1,3.3-0.1,4.8c0,1.8,0,3.5,0,5.3c0,3.5,0,7.1,0,10.6c0,7,0.1,14,0.1,21c0,3.5,0.1,7.1,0.1,10.6
		c0,2.5-0.3,5.4,1.1,7.6c1.7,2.5,4.6,2.5,6.7,4.3c1.2,1.1,1.1,2.3-0.5,2.7c-1.4,0.4-3.3,0-4.8-0.1c-3.8-0.2-7.7-0.5-11.5-0.2
		c-1.9,0.1-3.8,0.4-5.7,0.6C418.7,120.4,417,120.3,416,119.2C416.4,117.4,416.7,119.9,416,119.2z"/>
	<path id="XMLID_127_" class="st30" d="M412.9,118.5c-1.7,2.4-5.9,0.9-8.3,0.7c-3.3-0.2-6.7-0.2-10,0.1c-1.6,0.1-3.2,0.4-4.9,0.6
		c-1.2,0.1-3.2,0.4-4.1-0.6c-1.5-1.7,3.6-3.2,4.6-3.7c1.1-0.5,2.1-1.1,2.7-2.2c0.9-1.5,0.7-3.3,0.7-5c0-3.5,0-7,0-10.6
		c-0.1-6.9-0.1-13.8-0.2-20.7c0-3.5-0.1-7-0.2-10.6c-0.1-2.4,0-5.2-2-6.8c-0.9-0.7-2.4-0.9-3-2c-0.7-1.1,0.4-1.7,1.3-2.1
		c3-1.3,6.2-2.3,9.3-3.5c1-0.4,2.3-1.3,3.5-1c1.3,0.3,1.4,1.6,1.4,2.7c0,3.5,0,7.1,0,10.6c0,7,0,13.9,0.1,20.9
		c0.1,7.7,0,15.5,0.2,23.3c0.1,2.5,1.1,4.7,3.3,6C409.4,116,411.7,116.1,412.9,118.5C411.9,119.9,412.1,116.9,412.9,118.5z"/>
	<path id="XMLID_126_" class="st30" d="M261.7,73.7c4.6,0.1,15.3,1.9,12.8,8.9c-1.1,3.1-4.7,2.8-6.9,1.1c-2.4-1.8-3.7-4.9-6.7-5.8
		c-5.6-1.6-10.6,3.7-12.5,8.4c-2.3,6-2.4,12.7,0.7,18.5c1.5,2.8,3.6,5.1,6.4,6.6c3.2,1.7,6.3,1.6,9.8,1.2c1.7-0.2,3.3-0.7,4.9-1.2
		c0.9-0.3,2.5-1,3.3-0.5c3.3,1.9-4.4,5.1-5.4,5.6c-1.4,0.7-2.7,1.5-4.3,1.9c-1.7,0.4-3.4,0.6-5.1,0.8c-3.3,0.3-6.6-0.1-9.6-1.3
		c-6.1-2.5-10.6-7.5-12.6-13.7c-1.2-3.8-1.2-7.3,0-11.1c1.2-3.7,2.7-7.1,5.1-10.1c2.4-3,5.4-5.1,9-6.6
		C254.1,74.6,257.7,74,261.7,73.7C265.6,73.8,260.4,73.8,261.7,73.7z"/>
	<path id="XMLID_125_" class="st30" d="M375.8,96.7c0,2.6,0,5.3,0,7.9c0,2.2-0.3,4.7,0.3,6.8c0.4,1.6,1.5,3,3,3.9
		c1.5,0.8,3.7,0.8,4.2,2.8c0.6,2.5-3.3,1.9-4.6,1.8c-2.6-0.3-5.1-0.7-7.7-0.7c-2.6,0-5.3,0.5-7.9,0.8c-1.2,0.2-5.1,1.1-5-1
		c0.1-2,3.3-2.6,4.8-3.2c1.6-0.7,2.6-1.9,2.7-3.6c0.3-2.5,0.1-5.2,0.1-7.8c0-2.7,0-5.4,0-8c0-2.3,0.1-4.8-0.2-7.1
		c-0.2-1.4-0.6-2.6-1.9-3.4c-1-0.6-4.5-1-3.1-2.9c0.6-0.8,2-1.2,2.9-1.5c1.2-0.5,2.3-0.9,3.5-1.4c2.4-1,4.2-2.4,6.3-4
		c0.7-0.5,2.3-1.1,3-0.3c0.6,0.7,0.2,2.4,0.2,3.1C375.7,84.9,375.8,90.8,375.8,96.7z"/>
	<path id="XMLID_124_" class="st30" d="M376.9,57.8c0,2.5-2.9,5.5-5.4,5.7c-2.6,0.3-5.5-2.5-6.1-4.9c-0.7-2.9,2.3-6.3,5.2-6.6
		C373.6,51.7,376.9,54.8,376.9,57.8C376.8,60.3,376.9,55,376.9,57.8z"/>
	<path id="XMLID_119_" class="st26" d="M97.5,80.8c4-4.1,8-8.3,12.2-12.6c2.4,2.6,4.7,5.2,7,7.8c1,1.1,1.9,2.5,3.1,3.4
		c1.6,1.2,1.1,2.7,0.9,4.2c-1.4,7.3-3.8,14.2-7.1,20.8c-2.6,5.2-5.7,10.1-9.7,14.5c-2.5,2.7-4.7,5.6-7.4,8c-2.9,2.6-6.1,4.8-9.3,7.2
		c-0.3,0.2-1,0.1-1.2-0.1c-3.6-2.8-7.2-5.5-10.6-8.5c-5.8-5-10.4-10.9-14-17.6c-2.4-4.4-4.8-9-6.6-13.7c-1.6-4-2.5-8.4-3.6-12.6
		c-0.1-0.3,0-0.8,0.2-1c2.4-2.8,4.9-5.5,7.4-8.2c1.2-1.4,2.5-2.7,3.7-4.1c4.1,4.1,8.1,8.1,12.2,12.2c1.9-2,3.8-4,5.7-5.9
		c1.7-1.9,3.4-3.8,5.2-5.6c0.2-0.2,1.1-0.2,1.3,0c2.3,2.4,4.5,4.9,6.7,7.4C94.7,77.9,96.1,79.3,97.5,80.8z M78.6,90.3
		c-0.1-0.1-0.1-0.3-0.2-0.4c-0.6,0.1-1.1,0.1-1.9,0.2c0.5-0.9,0.8-1.7,1.3-2.6c-0.3,0.1-0.5,0.1-0.7,0.2c-2.1,0.7-4.2,1.6-6.4,2.2
		c-1.9,0.6-2.9-0.3-2.9-2.2c0-2.3-2.8-4.1-4.9-3.1c-1,0.5-1.8,1.2-2.8,1.9c1.8,0.5,1.2,1.2,0.3,2c1.4,0.3,1,1.3,0.8,2
		c-0.8,2.3-0.3,4,1.7,5.5c0.9,0.6,1.6,1.4,2.4,2.1c-0.5,0.3-0.8,0.5-1.1,0.6c0.4,0.5,0.9,0.9,1.3,1.4c-0.1,0.4-0.3,0.8-0.5,1.5
		c1.3-0.2,2.3-0.4,3.4-0.5c0.2,0,0.5,0,0.7,0c0.6,0.1,1.3,0.4,1.9,0.3c0.5-0.1,1-0.5,1.5-0.8c-0.3-0.4-0.7-0.8-1-1.2
		c-0.1-0.1-0.2-0.2-0.6-0.5c2.5-0.6,4.7-0.8,6.8-0.2c2.1,0.6,4.2,1.4,6.4,2.2c-1-1.4-2-2.7-2.9-4c0.8-0.7,1.5-1.3,2.2-1.9
		c-4.4,0.9-7,0.4-7.7-1.5C76.7,92.5,77.6,91.4,78.6,90.3z M111.9,101.6c-1-1.4-2-2.7-3-4.1c0.6-0.6,1.3-1.2,2-1.8
		c-1.9,0-3.8,0.1-5.7-0.1c-0.6-0.1-1.2-0.9-1.6-1.5c-0.1-0.2,0.4-0.8,0.7-1.2c0.6-0.8,1.2-1.5,1.9-2.5c-0.9,0.1-1.4,0.1-2,0.1
		c0.5-1,0.8-1.8,1.3-2.8c-2.2,0.9-4.1,1.8-6.1,2.4c-2.7,0.9-3.7,0.2-4-2.5c-0.2-1.3-2-2.9-3.3-2.9c-1.7,0.1-2.9,1.2-4.3,2.2
		c1.4,0.3,1.2,1,0.6,1.8c0.9,1,0.9,1,0.3,2.5c-0.6,1.5-0.3,2.9,0.8,4c1.1,1.1,2.2,2.2,3.4,3.3c-0.5,0.2-0.9,0.3-1.3,0.5
		c0.6,0.5,1,1,1.5,1.4c-0.2,0.5-0.3,0.9-0.6,1.6c1.3-0.2,2.4-0.4,3.4-0.6c0.2,0,0.5,0,0.7,0.1c1.4,0.6,2.6,0.5,3.7-0.6
		c-0.2-0.2-0.3-0.4-0.4-0.5c-0.4-0.3-0.8-0.6-1.4-1C103.5,97.8,107.6,99.9,111.9,101.6z M98.2,121.1c0.1-0.1,0.2-0.2,0.3-0.3
		c-0.9-1.3-1.8-2.7-2.8-4.1c0.6-0.4,1.3-0.9,2-1.5c-0.5-0.2-0.8-0.1-1.2-0.1c-1.7,0-3.4,0-5.1-0.2c-0.5-0.1-0.9-0.8-1.1-1.4
		c-0.1-0.2,0.5-0.7,0.7-1c0.6-0.8,1.2-1.5,2-2.5c-0.9-0.1-1.4-0.1-2.1-0.1c0.5-0.8,0.9-1.5,1.5-2.5c-0.9,0.2-1.6,0.3-2.2,0.6
		c-1.4,0.6-2.8,1.3-4.3,1.9c-2.1,0.8-3.7-0.3-3.7-2.5c-0.1-1.5-0.7-2.2-2.6-2.8c-1.7-0.5-4.4,0.7-4.9,2.1c0.3,0.2,0.6,0.3,0.9,0.5
		c-0.1,0.5-0.2,0.9-0.2,1.4c0,0.6,0.4,1.3,0.2,1.8c-0.6,1.9,0.4,4.8,2.2,5.9c0.8,0.5,1.3,1.2,2.1,2c-0.6,0.2-1,0.3-1.2,0.4
		c0,1.1,2.7,0.8,1,2.4c1.1,0.7,1.2,0.6,2.7,0.1c0.4-0.1,1-0.2,1.3-0.1c1.4,0.8,2.5,0.3,3.6-0.7c-0.4-0.2-0.7-0.4-1-0.6
		c-0.3-0.2-0.6-0.4-1.1-0.8C90.1,117.3,94.1,119.3,98.2,121.1z"/>
	<path id="XMLID_118_" class="st26" d="M85.6,63.9c-0.8,1.4-2.2,1.1-3.5,1.1c-1.5,0-3.1,0-4.6,0c-0.4,0-0.8-0.2-1.2-0.3
		c0.1-0.1,0.2-0.2,0.3-0.3c1.2-0.4,2.3-0.7,3.2-1c-0.3,0-1,0-1.8,0c0-5,0-10,0-15.1c1.8,1.1,3.4-0.1,5.1-0.4
		c0.4-0.1,0.8-0.2,1.1-0.2c1.9,0,2,0,2,1.9c0,4,0,8,0,12c0,0.5,0,1,0,1.4c-1.6,0-3.1,0-4.5,0c1.4,0.2,2.8,0.4,4.3,0.5
		C85.8,63.7,85.7,63.8,85.6,63.9z"/>
	<path id="XMLID_117_" class="st26" d="M85.6,63.9c0.1-0.1,0.2-0.2,0.3-0.3c1.5-0.2,3-0.4,4.5-0.5c-1.2-0.1-2.6-0.1-4-0.2
		c0-2,0-4.2,0-6.4c0-2.4,0-4.9,0-7.3c0-1.1,0.5-1.5,1.5-1.4c0.7,0.1,1.5,0.2,2.1,0.5c1.3,0.5,2.6,0.9,4.1,0.1c0,5.1,0,10,0,15.1
		c-0.7,0-1.3,0.1-1.7,0.1c0.8,0.2,1.8,0.4,2.8,0.7c0.2,0.2,0.4,0.4,0.6,0.6c-0.1,0.1-0.3,0.3-0.4,0.3c-3.3,0-6.6,0-10.1,0
		C85.4,64.5,85.5,64.2,85.6,63.9z"/>
	<path id="XMLID_116_" class="st26" d="M62.1,52c0.6,1.1,1.1,2.1,1.7,3.2c0.2,0,0.4,0.1,0.6,0.1c-0.2,0.1-0.5,0.1-0.6,0.2
		c-1,1.3-0.8,1.8,0.8,2.3c0.8,0.2,1.5,0.7,2.3,1.1c2-0.7,2.1-1,0.5-3.3c0.6,0.2,1.1,0.4,1.6,0.6c0.5-0.2,1-0.4,1.5-0.6
		c-0.1,0.6-0.1,1.2-0.3,1.8c-0.4,1-0.9,1.9-1.3,2.8c-0.3,0.8-0.7,1.4-1.7,0.9c-0.2-0.1-0.4,0-0.8,0c1.7,0.9,1.6,1.3,0.8,2.9
		c-0.9,1.7-2.4,1.1-3.6,1.3c-1.8,0.2-3.6,0-5.4-0.3c-0.6-0.1-1.2-0.9-1.6-1.5c-0.3-0.4-0.5-1-0.8-1.7c1.2-0.3,2.4-0.6,3.6-0.9
		c0,0,0-0.1,0-0.1c-1.2,0.1-2.5,0.3-3.9,0.5c-0.8-1.7-1.6-3.7-2.6-5.9c0.9,0.3,1.5,0.5,1.9,0.6c0.7-0.2,1.2-0.4,1.8-0.6
		c0.1,0.1,0.1,0.2,0.2,0.3c-0.3,0.4-0.5,0.9-0.9,1.3c-0.6,0.7-0.3,1.4,0.2,1.8c0.4,0.3,1.2,0.1,1.7-0.1c0.6-0.2,1.1-0.6,1.7-0.8
		c1.5-0.4,1.7-0.9,0.8-2.2c-0.1-0.2-0.4-0.2-0.6-0.4c0.1-0.1,0.1-0.2,0.2-0.3c0.3-0.1,0.6-0.2,0.7-0.2c0.3-1,0.6-1.9,0.9-2.9
		C61.8,51.9,61.9,52,62.1,52z"/>
	<path id="XMLID_113_" class="st26" d="M116.1,55.5c0.6,0.2,1.2,0.5,1.7,0.7c0.5-0.3,1-0.6,1.5-0.8c0.1,0.1,0.2,0.2,0.3,0.4
		c-0.8,1.7-1.5,3.4-2.4,5c-0.2,0.4-1.3,0.4-1.7,0.5c0.2,0.1,0.7,0.3,1.4,0.6c-0.4,0.9-0.7,1.7-1,2.4c-0.2,0.3-0.5,0.7-0.8,0.7
		c-2.7,0.1-5.5,0.1-8.2,0c-0.4,0-0.9-0.7-1.2-1.2c-0.3-0.6-0.5-1.3-0.9-2.1c1.2-0.3,2.4-0.5,3.5-0.8c0,0,0-0.1,0-0.1
		c-1.3,0.1-2.6,0.3-4,0.4c-0.8-1.7-1.7-3.6-2.5-5.4c0.1-0.1,0.1-0.2,0.2-0.3c0.5,0.2,1.1,0.4,1.7,0.6c0.3-0.2,0.9-0.4,1.4-0.7
		c0.1,0.1,0.2,0.2,0.3,0.3c-0.2,0.5-0.4,1-0.7,1.4c-0.6,0.7-0.2,1.4,0.2,1.7c0.4,0.3,1.1,0.1,1.7,0c0.5-0.1,0.9-0.4,1.4-0.6
		c0.6-0.3,1.6-0.1,1.5-1.1c-0.1-0.6-0.5-1.2-0.7-1.7c0.6-1,1.2-2.1,1.9-3.3c0.1,0,0.3,0,0.4,0c0.3,0.9,0.6,1.8,1,2.9
		c0.2,0,0.6,0.1,1.2,0.2c-0.4,0.4-0.7,0.6-1,0.9c-0.6,0.7-0.2,1.6,0.6,1.9c0.9,0.3,1.7,0.7,2.7,1.2
		C117.3,58.1,117.3,58.1,116.1,55.5z M109.8,59.5c0.7,0,1.2,0,1.9,0c-0.4-0.6-0.6-1-0.9-1.5C110.4,58.5,110.1,59,109.8,59.5z"/>
	<path id="XMLID_112_" class="st26" d="M95.8,64.7c-0.2-0.2-0.4-0.4-0.6-0.6c-0.7-0.5-0.8-1.2-0.8-2.1c0-4.5,0-9.1,0-13.8
		c1.1,0.8,1.7,1.5,1.7,2.8c-0.1,4.1,0,8.2,0,12.3C96,63.8,95.8,64.2,95.8,64.7z"/>
	<path id="XMLID_111_" class="st26" d="M76.6,64.4c-0.1,0.1-0.2,0.2-0.3,0.3c-0.1-0.5-0.2-0.9-0.2-1.4c0-4.1,0-8.1,0-12.2
		c0-1.2,0.2-2.1,1.6-2.6c0,0.4,0.1,0.7,0.1,1.1c0,4,0,7.9,0,11.9C77.8,62.7,77.5,63.6,76.6,64.4z"/>
	<path id="XMLID_110_" class="st30" d="M78.6,90.3c-1,1.1-1.9,2.2-2.9,3.4c0.8,1.9,3.3,2.4,7.7,1.5c-0.7,0.6-1.4,1.2-2.2,1.9
		c0.9,1.3,1.9,2.6,2.9,4c-2.2-0.8-4.3-1.6-6.4-2.2c-2.2-0.6-4.4-0.5-6.8,0.2c0.4,0.3,0.5,0.4,0.6,0.5c0.4,0.4,0.7,0.8,1,1.2
		c-0.5,0.3-1,0.7-1.5,0.8c-0.6,0.1-1.3-0.2-1.9-0.3c-0.2,0-0.5-0.1-0.7,0c-1.1,0.2-2.1,0.3-3.4,0.5c0.3-0.7,0.4-1.1,0.5-1.5
		c-0.5-0.5-0.9-1-1.3-1.4c0.3-0.2,0.6-0.4,1.1-0.6c-0.8-0.7-1.5-1.5-2.4-2.1c-2-1.5-2.5-3.2-1.7-5.5c0.2-0.7,0.6-1.6-0.8-2
		c0.8-0.8,1.5-1.5-0.3-2c1.1-0.7,1.9-1.5,2.8-1.9c2.1-1,4.8,0.7,4.9,3.1c0,1.9,1,2.8,2.9,2.2c2.2-0.6,4.2-1.5,6.4-2.2
		c0.2-0.1,0.4-0.1,0.7-0.2c-0.4,0.9-0.8,1.7-1.3,2.6c0.7-0.1,1.3-0.2,1.9-0.2C78.4,90,78.5,90.2,78.6,90.3z"/>
	<path id="XMLID_109_" class="st30" d="M111.9,101.6c-4.4-1.7-8.5-3.8-13.4-1.9c0.6,0.4,1,0.7,1.4,1c0.2,0.1,0.3,0.3,0.4,0.5
		c-1.1,1.1-2.4,1.2-3.7,0.6c-0.2-0.1-0.5-0.1-0.7-0.1c-1.1,0.2-2.1,0.3-3.4,0.6c0.3-0.7,0.4-1.1,0.6-1.6c-0.4-0.4-0.9-0.9-1.5-1.4
		c0.4-0.2,0.8-0.3,1.3-0.5c-1.2-1.1-2.3-2.2-3.4-3.3c-1.1-1.1-1.4-2.6-0.8-4c0.6-1.4,0.6-1.4-0.3-2.5c0.7-0.7,0.8-1.4-0.6-1.8
		c1.4-1,2.6-2.1,4.3-2.2c1.3-0.1,3.1,1.5,3.3,2.9c0.3,2.8,1.3,3.4,4,2.5c2-0.7,3.8-1.5,6.1-2.4c-0.5,1.1-0.9,1.8-1.3,2.8
		c0.6,0,1.1-0.1,2-0.1c-0.7,0.9-1.3,1.7-1.9,2.5c-0.3,0.4-0.8,1-0.7,1.2c0.4,0.6,1,1.4,1.6,1.5c1.9,0.2,3.8,0.1,5.7,0.1
		c-0.6,0.6-1.4,1.2-2,1.8C109.9,98.9,110.9,100.2,111.9,101.6z"/>
	<path id="XMLID_108_" class="st30" d="M98.2,121.1c-4.1-1.8-8.1-3.8-13-2.1c0.5,0.4,0.8,0.6,1.1,0.8c0.3,0.2,0.6,0.4,1,0.6
		c-1.1,1-2.2,1.5-3.6,0.7c-0.3-0.2-0.9-0.1-1.3,0.1c-1.5,0.6-1.6,0.6-2.7-0.1c1.7-1.7-1-1.4-1-2.4c0.2-0.1,0.6-0.2,1.2-0.4
		c-0.8-0.7-1.3-1.5-2.1-2c-1.8-1.1-2.8-4-2.2-5.9c0.2-0.5-0.2-1.2-0.2-1.8c0-0.4,0.1-0.9,0.2-1.4c-0.3-0.2-0.6-0.3-0.9-0.5
		c0.5-1.4,3.2-2.6,4.9-2.1c1.9,0.6,2.5,1.3,2.6,2.8c0.1,2.2,1.7,3.3,3.7,2.5c1.5-0.6,2.8-1.3,4.3-1.9c0.6-0.2,1.3-0.3,2.2-0.6
		c-0.6,1-1,1.7-1.5,2.5c0.7,0,1.2,0.1,2.1,0.1c-0.8,0.9-1.4,1.7-2,2.5c-0.3,0.3-0.8,0.8-0.7,1c0.2,0.5,0.7,1.3,1.1,1.4
		c1.7,0.2,3.4,0.2,5.1,0.2c0.4,0,0.7-0.1,1.2,0.1c-0.7,0.5-1.4,1-2,1.5c1,1.4,1.9,2.7,2.8,4.1C98.4,120.9,98.3,121,98.2,121.1z"/>
	<path id="XMLID_107_" class="st30" d="M109.8,59.5c0.3-0.5,0.6-1,0.9-1.5c0.3,0.5,0.6,0.9,0.9,1.5C111,59.5,110.4,59.5,109.8,59.5z
		"/>
</g>
<path id="XMLID_25_" class="st30" d="M229.1,284.3h-40.6c-18.9,0-34.3-15.4-34.3-34.3s15.4-34.3,34.3-34.3h40.6
	c18.9,0,34.3,15.4,34.3,34.3S248,284.3,229.1,284.3z M188.5,220.7c-16.1,0-29.3,13.1-29.3,29.3s13.1,29.3,29.3,29.3h40.6
	c16.1,0,29.3-13.1,29.3-29.3s-13.1-29.3-29.3-29.3H188.5z"/>
<path id="XMLID_21_" class="st31" d="M305.3,284.3h-40.6c-18.9,0-34.3-15.4-34.3-34.3s15.4-34.3,34.3-34.3h40.6
	c18.9,0,34.3,15.4,34.3,34.3S324.2,284.3,305.3,284.3z M264.7,220.7c-16.1,0-29.3,13.1-29.3,29.3s13.1,29.3,29.3,29.3h40.6
	c16.1,0,29.3-13.1,29.3-29.3s-13.1-29.3-29.3-29.3H264.7z"/>
</svg>
