<svg id="Layer_1" data-name="Layer 1" xmlns="http://www.w3.org/2000/svg" viewBox="0 0 412.567 438.427">
  <defs>
    <style>
      .cls-1 {
        fill: #781320;
      }

      .cls-1, .cls-2 {
        stroke: #781320;
        stroke-linecap: round;
        stroke-linejoin: round;
        stroke-width: 10px;
      }

      .cls-2 {
        fill: none;
      }
    </style>
  </defs>
  <title>media-design</title>
  <path class="cls-1" d="M111.495,383.708,300.713,170.463s11.861-8.791,26.878.219,13.165,26.812,13.165,26.812L144.538,407.74s-.9-9.149-13.02-19.026S111.495,383.708,111.495,383.708Z" transform="translate(-58.102 -30.249)"/>
  <path class="cls-2" d="M66.956,433.1l44.539-49.387s159.031-175.4,174.235-166.279S144.538,407.74,144.538,407.74l-44.13,49.685" transform="translate(-58.102 -30.249)"/>
  <path class="cls-2" d="M143.408,348.01l194.323-219s12.181-9.028,27.6.225,13.521,27.535,13.521,27.535L177.342,372.691s-.921-9.4-13.371-19.54S143.408,348.01,143.408,348.01Z" transform="translate(-58.102 -30.249)"/>
  <ellipse class="cls-2" cx="82.495" cy="446.823" rx="14.991" ry="20.861" transform="translate(-398.088 249.345) rotate(-57.945)"/>
  <line class="cls-2" x1="260.837" y1="69.734" x2="249.508" y2="33.051"/>
  <line class="cls-2" x1="297.519" y1="69.734" x2="305.121" y2="5"/>
  <line class="cls-2" x1="332.044" y1="78.365" x2="378.167" y2="27.894"/>
  <line class="cls-2" x1="348.767" y1="103.482" x2="407.567" y2="91.178"/>
  <line class="cls-2" x1="344.389" y1="134.964" x2="386.045" y2="137.776"/>
</svg>
