<!-- Generator: Adobe Illustrator 21.0.0, SVG Export Plug-In  -->
<svg version="1.1"
	 xmlns="http://www.w3.org/2000/svg" xmlns:xlink="http://www.w3.org/1999/xlink" xmlns:a="http://ns.adobe.com/AdobeSVGViewerExtensions/3.0/"
	 x="0px" y="0px" width="34.393px" height="34.393px" viewBox="0 0 34.393 34.393"
	 style="enable-background:new 0 0 34.393 34.393;" xml:space="preserve">
<style type="text/css">
	.st0{fill:#235685;}
	.st1{fill:#FFFFFF;}
</style>
<defs>
</defs>
<g>
	<circle class="st0" cx="17.197" cy="17.197" r="17.197"/>
	<g id="j5X6Tp.tif_2_">
		<g>
			<g>
				<path class="st1" d="M15.174,26.617c0-2.861,0-5.709,0-8.577c-0.95,0-1.898,0-2.86,0c0-1.126,0-2.232,0-3.364
					c0.071,0,0.14,0,0.209,0c0.821,0,1.642-0.005,2.463,0.004c0.168,0.002,0.207-0.053,0.207-0.211c0-0.915-0.02-1.832,0.024-2.746
					c0.059-1.222,0.495-2.288,1.479-3.073c0.587-0.468,1.271-0.72,2.009-0.81c1.085-0.132,2.169-0.032,3.251,0.071
					c0.044,0.004,0.117,0.081,0.117,0.125c0.007,0.915,0.004,1.831,0.007,2.746c0,0.119-0.064,0.131-0.158,0.131
					c-0.502-0.002-1.004-0.01-1.506,0.003c-0.264,0.007-0.531,0.029-0.789,0.083c-0.566,0.118-0.877,0.472-0.939,1.048
					c-0.026,0.24-0.033,0.483-0.035,0.725c-0.005,0.579,0.002,1.158-0.004,1.736c-0.002,0.133,0.039,0.171,0.17,0.17
					c0.975-0.005,1.949-0.003,2.924-0.003c0.226,0,0.227,0.005,0.198,0.229c-0.128,0.977-0.259,1.954-0.377,2.932
					c-0.02,0.163-0.079,0.201-0.233,0.2c-0.815-0.007-1.63-0.003-2.445-0.003c-0.07,0-0.14,0-0.222,0c0,2.865,0,5.714,0,8.584
					L15.174,26.617z"/>
			</g>
		</g>
	</g>
</g>
</svg>