<!-- Generator: Adobe Illustrator 21.0.0, SVG Export Plug-In  -->
<svg version="1.1"
	 xmlns="http://www.w3.org/2000/svg" xmlns:xlink="http://www.w3.org/1999/xlink" xmlns:a="http://ns.adobe.com/AdobeSVGViewerExtensions/3.0/"
	 x="0px" y="0px" width="34.393px" height="34.393px" viewBox="0 0 34.393 34.393"
	 style="enable-background:new 0 0 34.393 34.393;" xml:space="preserve">
<style type="text/css">
	.st0{fill:#58B7DD;}
	.st1{fill:#FFFFFF;}
</style>
<defs>
</defs>
<g>
	<circle class="st0" cx="17.197" cy="17.197" r="17.197"/>
	<g>
		<path class="st1" d="M27.301,10.937c0,0.04,0,0.079,0,0.119c-0.015,0.011-0.035,0.02-0.045,0.034
			c-0.51,0.709-1.114,1.327-1.797,1.87c-0.062,0.049-0.108,0.149-0.115,0.229c-0.073,0.79-0.074,1.592-0.214,2.37
			c-0.482,2.684-1.678,5.003-3.686,6.875c-1.568,1.462-3.408,2.399-5.513,2.81c-0.381,0.074-0.766,0.132-1.149,0.198
			c-0.874,0-1.749,0-2.623,0c-0.149-0.026-0.297-0.057-0.447-0.076c-1.601-0.201-3.067-0.779-4.453-1.583
			c-0.058-0.034-0.111-0.074-0.167-0.111c0.002-0.022,0.004-0.044,0.006-0.066c2.208,0.183,4.212-0.337,6.021-1.695
			c-1.877-0.221-3.172-1.138-3.85-2.928c0.609,0.032,1.169,0.068,1.724-0.079c-0.936-0.265-1.715-0.764-2.295-1.53
			c-0.574-0.758-0.919-1.61-0.863-2.599c0.298,0.112,0.57,0.234,0.854,0.315c0.285,0.081,0.583,0.122,0.874,0.181
			c0.008-0.019,0.017-0.038,0.025-0.057c-0.845-0.642-1.418-1.466-1.63-2.506c-0.211-1.033-0.089-2.028,0.457-3.014
			c2.286,2.623,5.099,4.129,8.582,4.355c-0.016-0.136-0.029-0.234-0.039-0.332c-0.239-2.171,0.899-3.678,2.385-4.381
			c0.377-0.179,0.801-0.259,1.203-0.384c0.358,0,0.715,0,1.073,0c0.023,0.011,0.046,0.028,0.07,0.031
			c0.835,0.096,1.561,0.442,2.177,1.003c0.223,0.203,0.438,0.275,0.716,0.167c0.663-0.258,1.327-0.516,1.991-0.773
			c0.069-0.027,0.139-0.051,0.243-0.089c-0.33,0.923-0.909,1.605-1.622,2.197C25.931,11.412,26.617,11.18,27.301,10.937z"/>
	</g>
</g>
</svg>