<!-- Generator: Adobe Illustrator 21.0.0, SVG Export Plug-In  -->
<svg version="1.1"
	 xmlns="http://www.w3.org/2000/svg" xmlns:xlink="http://www.w3.org/1999/xlink" xmlns:a="http://ns.adobe.com/AdobeSVGViewerExtensions/3.0/"
	 x="0px" y="0px" width="34.393px" height="34.393px" viewBox="0 0 34.393 34.393"
	 style="enable-background:new 0 0 34.393 34.393;" xml:space="preserve">
<style type="text/css">
	.st0{fill:#8C212B;}
	.st1{fill:#FFFFFF;}
</style>
<defs>
</defs>
<g>
	<circle class="st0" cx="17.197" cy="17.197" r="17.197"/>
	<g>
		<path class="st1" d="M11.577,28.529c3.689,0.083,7.384,0.104,11.072-0.006c3.127-0.093,5.649-2.61,5.743-5.738
			c0.111-3.707,0.116-7.422-0.002-11.128c-0.1-3.134-2.599-5.505-5.757-5.75c-0.243-0.019-0.484-0.074-0.726-0.113
			c-3.203,0-6.405,0-9.608,0c-0.69,0.122-1.395,0.19-2.067,0.376C7.678,6.88,5.983,9.015,5.775,11.709
			c-0.019,0.241-0.074,0.48-0.112,0.72c0,3.203,0,6.405,0,9.608c0.143,0.741,0.223,1.501,0.441,2.219
			C6.86,26.746,8.975,28.471,11.577,28.529z M7.847,12.194c0.047-2.518,1.726-4.177,4.249-4.219
			c3.331-0.055,6.664-0.054,9.995-0.001c2.547,0.041,4.17,1.715,4.279,4.265c0.036,0.837,0.073,1.674,0.088,2.512
			c0.015,0.819,0.003,1.638,0.003,2.457c0.026,0.001,0.053,0.002,0.079,0.003c-0.086,1.881-0.059,3.777-0.288,5.64
			c-0.28,2.281-1.806,3.591-4.122,3.631c-3.35,0.059-6.703,0.062-10.053,0c-2.524-0.047-4.188-1.718-4.231-4.239
			C7.787,18.896,7.784,15.544,7.847,12.194z"/>
		<path class="st1" d="M17.096,23.114c3.254,0.006,5.886-2.622,5.887-5.881c0.001-3.257-2.626-5.89-5.881-5.894
			c-3.245-0.005-5.885,2.633-5.894,5.888C11.198,20.469,13.838,23.107,17.096,23.114z M17.118,13.447
			c2.113,0.003,3.775,1.693,3.765,3.831c-0.009,2.078-1.702,3.741-3.805,3.737c-2.113-0.004-3.772-1.694-3.763-3.833
			C13.325,15.102,15.013,13.444,17.118,13.447z"/>
		<path class="st1" d="M23.229,12.525c0.748-0.018,1.364-0.658,1.357-1.412c-0.007-0.762-0.625-1.372-1.387-1.37
			c-0.758,0.002-1.388,0.622-1.396,1.372C21.795,11.87,22.475,12.542,23.229,12.525z"/>
	</g>
</g>
</svg>