<svg id="Layer_1" data-name="Layer 1" xmlns="http://www.w3.org/2000/svg" viewBox="0 0 433.346 360.314">
  <defs>
    <style>
      .cls-1 {
        fill: none;
        stroke: #781320;
        stroke-linecap: round;
        stroke-linejoin: round;
        stroke-width: 10px;
      }
    </style>
  </defs>
  <title>prefab</title>
  <polygon class="cls-1" points="125.447 189.594 125.447 125.526 5 125.526 5 189.594 21.24 189.594 21.24 291.247 5 291.247 5 355.314 125.447 355.314 125.447 291.247 141.687 291.247 141.687 189.594 125.447 189.594"/>
  <polygon class="cls-1" points="246.443 189.594 246.443 125.526 125.997 125.526 125.997 189.594 142.237 189.594 142.237 291.247 125.997 291.247 125.997 355.314 246.443 355.314 246.443 291.247 262.683 291.247 262.683 189.594 246.443 189.594"/>
  <polygon class="cls-1" points="412.105 69.067 412.105 5 291.659 5 291.659 69.067 307.899 69.067 307.899 170.721 291.659 170.721 291.659 234.788 412.105 234.788 412.105 170.721 428.346 170.721 428.346 69.067 412.105 69.067"/>
</svg>
