<svg id="Layer_1" data-name="Layer 1" xmlns="http://www.w3.org/2000/svg" viewBox="0 0 123.3 123.6">
  <defs>
    <style>
      .cls-1 {
        fill: none;
        stroke: #1f4872;
        stroke-miterlimit: 10;
        stroke-width: 2px;
      }
    </style>
  </defs>
  <title>student-learning</title>
  <circle class="cls-1" cx="61.6" cy="7.9" r="6.9"/>
  <path class="cls-1" d="M63.3,48.8H86.8S84,32.5,75.1,32.5,63.3,48.8,63.3,48.8Z" transform="translate(-13.4 -15.5)"/>
  <circle class="cls-1" cx="115.4" cy="61.6" r="6.9"/>
  <path class="cls-1" d="M103.4,65.4V88.9s16.3-2.8,16.3-11.7S103.4,65.4,103.4,65.4Z" transform="translate(-13.4 -15.5)"/>
  <circle class="cls-1" cx="102.4" cy="20.9" r="6.9"/>
  <path class="cls-1" d="M89.5,46l16.6,16.6s9.5-13.5,3.2-19.8S89.5,46,89.5,46Z" transform="translate(-13.4 -15.5)"/>
  <circle class="cls-1" cx="102.4" cy="102.4" r="6.9"/>
  <path class="cls-1" d="M106.1,91.6,89.5,108.2s13.5,9.5,19.8,3.2S106.1,91.6,106.1,91.6Z" transform="translate(-13.4 -15.5)"/>
  <circle class="cls-1" cx="61.6" cy="115.7" r="6.9"/>
  <path class="cls-1" d="M86.8,105.8H63.3s2.8,16.3,11.7,16.3S86.8,105.8,86.8,105.8Z" transform="translate(-13.4 -15.5)"/>
  <circle class="cls-1" cx="7.9" cy="62" r="6.9"/>
  <path class="cls-1" d="M46.7,89.3V65.8S30.4,68.6,30.4,77.5,46.7,89.3,46.7,89.3Z" transform="translate(-13.4 -15.5)"/>
  <circle class="cls-1" cx="20.9" cy="102.8" r="6.9"/>
  <path class="cls-1" d="M60.5,108.6,43.9,92s-9.5,13.5-3.2,19.8C47,118.2,60.5,108.6,60.5,108.6Z" transform="translate(-13.4 -15.5)"/>
  <circle class="cls-1" cx="20.9" cy="21.3" r="6.9"/>
  <path class="cls-1" d="M43.9,63,60.5,46.4S47,36.9,40.7,43.2,43.9,63,43.9,63Z" transform="translate(-13.4 -15.5)"/>
  <path class="cls-1" d="M122.1,32.4c4.2,6.2-6,13.2,4.3,13.3-1.4-4.5-1.4-3.6.5-8.9C129.6,29.2,119.8,28.9,122.1,32.4Z" transform="translate(-13.4 -15.5)"/>
  <path class="cls-1" d="M120.1,124.3c-6.2,4.2-13.2-6-13.3,4.3,4.5-1.4,3.6-1.4,8.9.5C123.3,131.7,123.5,122,120.1,124.3Z" transform="translate(-13.4 -15.5)"/>
  <path class="cls-1" d="M27.9,122.3c-4.2-6.2,6-13.2-4.3-13.3,1.4,4.5,1.4,3.6-.5,8.9C20.4,125.4,30.2,125.7,27.9,122.3Z" transform="translate(-13.4 -15.5)"/>
  <path class="cls-1" d="M29.8,30.4c6.2-4.2,13.2,6,13.3-4.3-4.5,1.4-3.6,1.4-8.9-.5C26.7,22.9,26.4,32.7,29.8,30.4Z" transform="translate(-13.4 -15.5)"/>
</svg>
