<?xml version="1.0" encoding="utf-8"?>
<!-- Generator: Adobe Illustrator 21.1.0, SVG Export Plug-In . SVG Version: 6.00 Build 0)  -->
<svg version="1.1" id="Layer_1" xmlns="http://www.w3.org/2000/svg" xmlns:xlink="http://www.w3.org/1999/xlink" x="0px" y="0px"
	 viewBox="0 0 500 500" style="enable-background:new 0 0 500 500;" xml:space="preserve">
<style type="text/css">
	.st0{fill:#FFFFFF;}
</style>
<g>
	<path class="st0" d="M252.5,49.6c1.9,0,5.4,0.6,7.4,4.6l52.3,105.9c4.5,9.1,13.2,15.5,23.3,16.9l116.9,17c4.4,0.6,6.1,3.8,6.7,5.6
		s1.1,5.3-2.1,8.5l-84.6,82.5c-7.3,7.1-10.6,17.4-8.9,27.4l20,116.4c0.4,2.5-0.1,4.7-1.7,6.6s-4,3.1-6.4,3.1c-1.3,0-2.5-0.3-3.8-1
		l-104.6-55c-4.4-2.3-9.4-3.6-14.4-3.6s-10,1.2-14.4,3.6l-104.6,55c-1.3,0.7-2.6,1-3.8,1c-2.4,0-4.8-1.2-6.4-3.1s-2.1-4.1-1.7-6.6
		l20-116.4c1.7-10-1.6-20.3-8.9-27.4L48,208.1c-3.2-3.1-2.7-6.6-2.1-8.5c0.6-1.8,2.2-5,6.7-5.6l116.9-17
		c10.1-1.5,18.8-7.8,23.3-16.9l52.3-105.9C247.1,50.2,250.6,49.6,252.5,49.6 M252.5,29.6c-10.1,0-20.1,5.2-25.3,15.7l-52.3,105.9
		c-1.6,3.2-4.7,5.5-8.2,6l-116.9,17c-23.2,3.4-32.4,31.8-15.7,48.2l84.6,82.5c2.6,2.5,3.8,6.1,3.2,9.7l-20,116.4
		c-3.1,18.3,11.4,33.1,27.8,33.1c4.3,0,8.8-1,13.1-3.3l104.6-55c1.6-0.8,3.3-1.3,5.1-1.3s3.5,0.4,5.1,1.3l104.6,55
		c4.3,2.3,8.8,3.3,13.1,3.3c16.5,0,31-14.8,27.8-33.1l-20-116.4c-0.6-3.6,0.6-7.2,3.2-9.7l84.6-82.5c16.8-16.3,7.5-44.8-15.7-48.2
		l-116.9-17c-3.6-0.5-6.7-2.8-8.2-6L277.8,45.3C272.6,34.8,262.6,29.6,252.5,29.6L252.5,29.6z"/>
</g>
</svg>
